<svg id="Layer_1" data-name="Layer 1" xmlns="http://www.w3.org/2000/svg" viewBox="0 0 2250.71 1816.29"><defs><style>.cls-1{fill:#4a1f59;}.cls-2{fill:#06d9fe;}.cls-3{fill:#e7e1eb;}.cls-4{fill:#07d9fe;}.cls-5{fill:#4d235c;}.cls-6{fill:#10dafe;}.cls-7{fill:#18dcfe;}.cls-8{fill:#1bdcfe;}.cls-9{fill:#76eaff;}.cls-10{fill:#71e9fe;}.cls-11{fill:#b7f3ff;}.cls-12{fill:#b7c4d1;}.cls-13{fill:#241364;}.cls-14{fill:#febc8f;}.cls-15{fill:#a7adca;}.cls-16{fill:#241346;}.cls-17{fill:#4c81fb;}.cls-18{fill:#888582;}.cls-19{fill:#23a9e8;}.cls-20{fill:#f4c61d;}.cls-21{fill:#ebebeb;}.cls-22{fill:#3bba5c;}.cls-23{fill:#c98d78;}.cls-24{fill:#4662d0;}.cls-25{fill:#72647b;}.cls-26{fill:#baaac4;}.cls-27{fill:#dddff0;}.cls-28{fill:#81638c;}.cls-29{fill:#80638c;}.cls-30{fill:#d7d5ef;}.cls-31{fill:#ba9240;}.cls-32{fill:#584b89;}.cls-33{fill:#fbfaff;}.cls-34{fill:#b99140;}.cls-35{fill:#fdbc8f;}.cls-36{fill:#4df279;}.cls-37{fill:#91a8ef;}.cls-38{fill:#4b215a;}.cls-39{fill:#2d695d;}.cls-40{fill:#90a7ee;}.cls-41{fill:#e8e8e9;}.cls-42{fill:#f3c51e;}.cls-43{fill:#e7e6e7;}.cls-44{fill:#fce19c;}.cls-45{fill:#c88c78;}.cls-46{fill:#cbbad5;}.cls-47{fill:#c8b7cd;}.cls-48{fill:#5bb99d;}.cls-49{fill:#3182c0;}.cls-50{fill:#fcba8e;}.cls-51{fill:#fbfcfb;}.cls-52{fill:#868282;}.cls-53{fill:#4663d1;}.cls-54{fill:#aec8f7;}.cls-55{fill:#837c80;}.cls-56{fill:#f9d3c1;}.cls-57{fill:#b7a7c1;}.cls-58{fill:#554685;}.cls-59{fill:#bda6c7;}.cls-60{fill:#f9f9fd;}.cls-61{fill:#f9de99;}.cls-62{fill:#b7a6c1;}.cls-63{fill:#bba5c5;}.cls-64{fill:#c9b8d3;}.cls-65{fill:#57aa95;}.cls-66{fill:#f8d1be;}.cls-67{fill:#7dc0f5;}.cls-68{fill:#c58a78;}.cls-69{fill:#0ad0f6;}.cls-70{fill:#f7ccb6;}.cls-71{fill:#817a7e;}.cls-72{fill:#858080;}.cls-73{fill:#51a98e;}.cls-74{fill:#f2f2f6;}.cls-75{fill:#f2f1f5;}.cls-76{fill:#5f396d;}.cls-77{fill:#6e4b7b;}.cls-78{fill:#542e60;}.cls-79{fill:#504080;}.cls-80{fill:#439a7e;}.cls-81{fill:#ac98b2;}.cls-82{fill:#62406e;}.cls-83{fill:#57a494;}.cls-84{fill:#513f7e;}.cls-85{fill:#11bee6;}.cls-86{fill:#e0a287;}.cls-87{fill:#e5beb3;}.cls-88{fill:#f1d384;}.cls-89{fill:#4c3878;}.cls-90{fill:#68506c;}.cls-91{fill:#be9e86;}.cls-92{fill:#1c9bc7;}.cls-93{fill:#9a7247;}.cls-94{fill:#aaf2ff;}.cls-95{fill:#e1faff;}.cls-96{fill:#d3f8ff;}.cls-97{fill:#8feeff;}.cls-98{fill:#4b205a;}.cls-99{fill:#5e3d6f;}.cls-100{fill:#4e246a;}.cls-101{fill:#7e4d74;}.cls-102{fill:#4d235b;}.cls-103{fill:#532f5f;}.cls-104{fill:#705e72;}.cls-105{fill:#6dbdf3;}.cls-106{fill:#fdc8a5;}.cls-107{fill:#6f4e88;}.cls-108{fill:#4a216a;}.cls-109{fill:#51276b;}.cls-110{fill:#4df479;}.cls-111{fill:#fec9a5;}.cls-112{fill:#6f4d87;}.cls-113{fill:#4e256b;}.cls-114{fill:#583972;}.cls-115{fill:#8d77a0;}.cls-116{fill:#43ad7e;}.cls-117{fill:#409e7e;}.cls-118{fill:#45b080;}.cls-119{fill:#48b284;}.cls-120{fill:#49b185;}.cls-121{fill:#f7f5f8;}.cls-122{fill:#f5f3f7;}</style></defs><path class="cls-1" d="M3262.35,3040.91c-.07,2.66-.18,5.32-.21,8-.27,20.21,1.05,39.92,17.25,55a12.24,12.24,0,0,1,2.15,3.35c6.23,11.74,11.17,24.43,19,35,7.43,10,18.36,17.31,24.22,28.87,2,4,5.53,5.19,9.93,5a203.47,203.47,0,0,1,21.95-.06c45.23,3.32,66.55,31.43,72.51,60.23,1.2,5.86,2.63,11.66,4,17.49,4.09,3.14,8.9,2.16,13.45,2.18,25.3.08,50.6,0,75.9.05,4.66,0,9.35-.2,14,.18,8.88.72,11.52,5.48,8.75,15.35a22.52,22.52,0,0,1-1.71,3.58c-9.28,9.54-20.62,6.19-31.61,5.13-24.92-3.3-50.08-4.11-75-6.88-41.55-4.6-83.54-.88-124.95-7.29-3.94-.6-7.93-.87-11.68-2.19a12.87,12.87,0,0,1-5.29-3.75c-3.08-7.4,2-12.46,5.22-18.15,15.49-27.54,12.43-52-10.33-74.11-8.36-8.14-14.73-17-18.25-28-1.93-6.11-3.62-12.34-7.9-17.41-24.85-36.28-57-63.6-98.22-79.61-14.73-6-30.2-8.94-45.8-11.39-13-3.88-25.8-2.06-38.64.61-60.93,5.52-108.38,34-142.92,84.18-13.24,19.23-12.57,19.75,10,23.26,38.95,6.06,69.25,23.94,81.5,63.84,5.83,19,5.73,38-6.93,55-9.32,3.19-17.57,3.22-22.21-7.47a23.69,23.69,0,0,1-.74-7.83c4-48.8-17.46-72.71-66.5-73.78-7.9-.17-15.9-.76-23.58,1.92-21.05,3-32.83,14.33-39,35.51-5.84,20.18-17.82,38-37.23,49.13a31.55,31.55,0,0,1-5.87,2.16c-12.41,2.72-25,7.33-36.25-3.1-.24-9.32,7.84-11.42,13.63-15.2,44.09-28.76,55.5-68.35,33.25-116.29-5.66-12.47-15.35-21.24-26.51-28.65-2.32-1.46-4.62-2.94-7-4.24a69,69,0,0,0-8.31-3c-30.78-12.5-62.06-4.46-92.72-1-122,14-241,42.41-358.19,78.4-9.33,2.87-22.43,2.44-23.55,17.27-.08,12.56.12,25.1-.19,37.64,0,11.92,1.34,23.92-2,35.65-2.77,6.57-8.13,8.7-14.78,8.61-4.91-.45-9-2.27-11.55-6.78-5.11-15.18-1.7-30.93-2.87-46.4-.68-9,.24-19-12.23-21.16-12.64-1.12-20.94,6.41-29.43,14.18-17.75,16.24-36.62,30.82-60.67,36.75-14.9,3.9-31.92,2-43.06,16.06-16.67,7.51-33.61,5.56-50.58,1.46-13-5.79-21.24-17.09-32.21-28.85-8.16,9.72-13.6,21.33-24.27,27.8-13.57,4.19-27.27,9.54-38.89-4.18,41.75-25.81,42.92-66.24,39-108.49-.26-36.48-.09-72.94-.18-109.39,0-8.61.44-17.31-4.07-25.16-1.06-.85-2.07-2.23-3.21-2.3-46.28-2.74-92.57-5.37-138.74,1.42-7.31,5.12-5.91,12.91-5.92,20.07-.14,52.65,0,105.3-.13,157.95,0,11,3.16,20.94,7.53,30.69,5,18.79,24.91,22.5,35.88,35.28a5.61,5.61,0,0,1-2.85,5.18c-11,4.52-22.37,3.22-33.7,1.73-3.87-.91-7.71-2.54-10-5.66-7.9-10.59-14.86-7.55-21.77.94a23.06,23.06,0,0,1-7.88,4.31c-10.44,1.09-21.36,4.9-29.86-5.18,3.41-13.74,18.62-17.46,24.58-29.05a32.73,32.73,0,0,0,7-22.29c-1.34-35.79-.85-71.61-.44-107.4.19-16.55-6.78-22-22.6-22-48.4.23-96.8.62-145.19-.14-13.9.1-27.82-.25-41.75,0-10.18.18-14.1,4.78-12.83,15.08,4.12,33.54,7,67.26,11.66,100.7,5.6,39.74,22.59,55.17,63.58,61.3,4.63.69,9.21,1.28,13,4.51a5,5,0,0,1-.8,6.25c-12,6.82-25.18,3.44-37.87,4.32-19.13,2.6-33.22-5-42.9-21.34-11.67-11.1-16.69-25.37-18.84-40.77-2.67-19.13-4.92-38.32-7.17-57.51q-7.83-66.48-15.45-133-1.48-12.91-2.07-25.91a35.52,35.52,0,0,1,7.46-24.31c5.6-7.16,12.27-12.15,21.94-11.71,3.32.15,6.67.06,10-.12,5.4-.29,7.28-3.13,4.92-7.69-2.45-4.72-5.27-9.26-7.89-13.89-34.93-61.83-61.57-126.88-77.15-196.33-11.77-52.48-15.52-105.44-9.6-158.88a345,345,0,0,1,22.78-90.79,71.39,71.39,0,0,1,5-10.88c5.65-9.16,15-12.92,25.71-10.58,3.24.71,6.34,2,9.51,3.05,15.72,2.44,24.58,14.84,35.48,24.34,6.39,5.57,10.72,13.64,19.62,16.65,6.55-6.58,8-15.41,11.15-23.29,11.13-28.15,26.61-53.7,45.49-77.2s39.67-22.93,57,1.47c21.1,29.72,34.26,63.12,44.31,97.86,3.15,10.87,5.49,22,8.06,33,3.82,16.35,5.84,16.9,18.35,5.37,5.87-5.41,11.13-11.52,17.73-16.11,20.84-14.49,43.43-7.79,51,16.17a376.35,376.35,0,0,1,17.21,94.15c5.29,99-14.29,193.51-54.24,283.89-6.39,14.45-11.48,26.2,10.25,30.14a7.61,7.61,0,0,1,5,3.18c13.58,23.78,36.47,20,58.2,20,24-.07,48-.62,72,.21,31.84,1.1,44.41,14.16,45,45.82.39,20.64-.27,41.3.31,61.94,0,.59.48,1.16,1.69,3.94a225.93,225.93,0,0,1,40.77-30.78c11.68-6.86,11-26.79-1.69-33.33-67.5-34.71-72.47-95.4-65.79-159.63,4.63-44.45,16.46-87.69,32.49-129.57a66.16,66.16,0,0,0,3.77-33.25c-3.88-29.73,9.33-54.68,35.74-67.17a68.88,68.88,0,0,0,26.19-20.87c39.28-51.58,91.22-84.87,152.13-105.17,1.82-.61,3.77-1,5.16-4.31-18.49-13.22-38.3-25.21-55.54-40.7-40.24-36.16-67.11-80.77-83.08-132-4.91-15.74-11.66-27.8-28.72-32.27-7-1.84-13.38-6.11-18.81-11.12-41.07-38-63.45-85.28-66.7-140.71-2-33.74,11.5-52.56,42.88-64.08,11.7-4.3,13.06-10,11-21-9.14-49.26-16.34-98.89-5.55-148.73,6.17-28.5,12.71-57.55,37.07-77.71l29.54-28.6c-3.92-6.3-10.2-7.5-15.21-10.54-15.4-9.35-30.42-19.15-43.09-32.15-7.51-7.71-13.79-16.19-17.45-26.43-9.36-26.21,4.81-48.92,32.41-51.79,12.84-1.34,25.27,1.49,37.37,5,10.81,3.17,21.22,7.71,31.78,11.72,3.48,1.31,6.86,2.87,11.08,4.65,1.24-8.38-2.89-14.19-4.3-20.46-1.76-7.89-3.24-15.7-2.39-23.7,1.54-14.38,8.35-25.16,22.53-30.07,13.25-4.6,25.61-.85,35.44,11.38,4.54,5.63,8,12.22,11.41,18.65,2.79,5.23,4.85,10.86,7.59,17.11,2.56-2,4.74-3.36,6.48-5.13,39.43-40.24,87.5-65.49,142.1-76.38,109.66-21.87,214.83-7.39,312.79,47.46,62.2,34.83,108.13,85.63,135.93,151.94a23.8,23.8,0,0,1,1.25,3.77,6.44,6.44,0,0,1-.27,2.09c-1.95,4.08-5.56,2.24-8.54,1.92-13.82-1.51-27.63-3.21-42.62-5-.49,10.27,6.49,16.38,9.58,23.86s7.15,14.23,10.79,21.32c8,8.43,12.45,18.71,15.72,29.68,17.88,59.87,22.71,120.38,7.42,181.47-3.65,14.59-2.44,22.85,13.62,28.66,22,7.95,34.68,26.41,34.84,49.34.41,62-22.88,114-70.35,154.62-2.52,2.16-5.32,4.78-8.38,5.33-32.27,5.72-39.76,31.38-49.95,57.32-26.56,67.65-72.06,119.14-138.16,151.22-2.39,1.41-6.08.58-7.28,4.15,1.3-2.08,3.47-2.35,5.65-2.71,49.22,9.49,90.92,33.66,127.69,66.62,16.32,14.63,32.26,29.95,45,48,5.53,7.84,13.23,13,21.27,17.84,17.32,10.46,26.7,26,27,46.13.22,15.67,4.4,30,9.82,44.53,16.82,45.05,30.48,91,34.49,139.22,1,11.79,6.44,17.93,17.88,20.47,12.86,2.87,26.5,4.43,36.19,15.11,10.29,4.45,20.66,8.73,30.86,13.39,41.49,18.94,77.26,45.5,106.58,80.57,4.2,5,7.71,11.24,16,8.68.58-.32,1.22-1,1.73-.9,31.93,5.22,51.14-15.71,71-34.88,10.51-10.17,22.2-18.87,33.08-28.55,9.16-8.15,19.39-11.39,31.1-6.26,12,5.27,15.42,15.9,15.47,27.73C3265.12,2988.21,3267.23,3014.68,3262.35,3040.91Z" transform="translate(-1378.64 -1587.86)"/><path class="cls-2" d="M2132.57,1834.32c-1.79,3.54-3.28,7.27-5.43,10.57-20.17,31-29,65.6-31,102-2,38.15,2.68,75.81,10,113.18l4.28,21.76c-7.17,1.75-13.64,3-19.89,4.92-23.93,7.46-37.42,24.92-38.77,50a130,130,0,0,0,3.82,37.63c7.27,30.18,19.5,58,37.93,83,8.75,11.86,18.84,22.46,31.31,30.57,6.77,4.4,13.9,8.33,22,9.18,9.81,1,12.56,6.87,14.76,15.57a290.76,290.76,0,0,0,140.29,183.86c4.37,2.45,10.53,3.05,12.36,10.05-3.12.92-6.13,1.88-9.18,2.71-65.35,17.81-118,54.57-159.43,107.68-7.1,9.11-14.42,16-26,20.13-22.68,8.11-36,31.47-34.4,55.59a77.2,77.2,0,0,0,1.52,9.87c1.82,9.42.54,18.28-3,27.31-13.29,34.22-22.83,69.53-29.83,105.57a325.09,325.09,0,0,0-5.68,79.54,145.8,145.8,0,0,0,11.67,50.35c10.21,23.63,26.52,41.71,51.09,50.51,9.79,3.51,14.11,8.81,13.49,18.76,0,.66.17,1.33.17,2,0,5.93,4.05,11.89,1.22,17.62-2.91,5.91-10.11,5.82-15.3,8.55-11.31,5.95-21.64,13.09-30.52,22.3-4,4.19-8.17,8.29-11.91,12.07-4.57-1.62-3.45-4.71-3.46-7.08-.11-22.66-.06-45.33-.08-68,0-4.67.23-9.38-.32-14-1.49-12.4-8.29-20.68-20.18-24.78-7.09-2.44-14.4-2.4-21.74-2.39-35.33,0-70.66-.2-106,.16-8.4.08-13.41-1.84-16.46-10.56-4.38-12.49-14.47-18.58-27.72-19.23-2.63-.13-5.26-.37-8.32-.59-2.19-5.9,1.32-10.2,3.34-14.74,19.61-43.89,35.67-89,46.47-135.88a564,564,0,0,0,13.47-166.72,388.91,388.91,0,0,0-15-84.43c-.76-2.55-1.31-5.18-2.27-7.65-6.82-17.51-23.46-23.31-38.59-12.43-10.23,7.36-19.1,16.58-28.76,24.75-3.91,3.31-6.14,8.9-13.64,9.7-1.64-7.49-3.42-15-4.94-22.56-7.38-36.76-18.7-72.2-36.42-105.35a244.94,244.94,0,0,0-19.06-30.45c-11.62-15.66-27.36-16.27-40.49-1.67-14.75,16.43-26.75,34.84-37,54.44-9.89,19-17.08,39-24.39,60.49-11.81-7.52-19.15-18.7-29-27.1-10.09-8.65-20.12-17.37-30.18-26,7.83-28.85,14.42-58,23.73-86.47,60.65-185.65,170.84-335,328.77-449.43,47.55-34.44,98.47-63.14,152.06-87.07C2118.8,1839.23,2125.76,1836.93,2132.57,1834.32Z" transform="translate(-1378.64 -1587.86)"/><path class="cls-3" d="M3512.12,3275.54c10.46.67,20.93,1.43,31.36-.43,2.43,3.78,6.14,4.69,10.33,4.81,18,.5,35.45,4.68,52.86,8.65,6.95,1.59,14.41,2.82,20.07,8.23,3.37,3.22,3.49,7,.24,10.24-3.53,3.46-7.84,4.87-12.42,5.94-15.48,3.61-30.81,8.16-46.46,10.62-19.59,3.08-39.48,4.12-59,8-5.16,1-10.64.35-16,.44-8,.13-16-.55-23.65,2.76a13,13,0,0,1-5.86,1c-28.69-2-56.82,6-85.53,4.46-13.19-.7-26.57-1.37-39.61,3.07-4.22,1.43-9.25.63-13.91.65-19.33.09-38.66.07-58,.14-8.63,0-17.12.1-25.68,2.64-6.2,1.83-13.2,1.17-19.84,1.18-49.34.11-98.67.27-148,0-10.91,0-20.84,1.67-30.68,6.78-18.46,9.6-39,12.95-59.12,17.06-22.67,4.63-45.5,9.47-68.49,11.21-17.87,1.35-35.43,5.67-53.44,5.12-6-.18-12-.29-17.76,2a18.61,18.61,0,0,1-7.75,1.63c-26-1.92-51.49,6.11-77.53,4.42-8.6-.56-17.16-.15-25.66,2.72-4.85,1.64-10.54,1-15.85,1.06-16.67.14-33.34,0-50,.18-11.93.14-23.87-.89-35.64,3.06-4.84,1.62-10.56.77-15.89.78q-155,0-310,0c-8,0-15.85.09-23.71-2.5-4.89-1.6-10.52-1.27-15.82-1.31-18.66-.17-37.33-.07-56-.19-9.95-.07-19.79.21-29.66-2.87-6.13-1.92-13.21-.79-19.86-1.05-13.9-.53-28,1.62-41.58-3.38-2.39-.88-5.28-.51-7.94-.56-13.93-.27-28,1.06-41.54-3.71-1.8-.63-4-.26-6-.3a186.62,186.62,0,0,1-33.62-3.22c-12.18-2.47-24.94-2.8-37.44-4.2-31.07-3.48-61.46-10-91.69-17.36-9-2.19-17.59-6.14-25.92-10.21a49.09,49.09,0,0,0-23-5.18c-17.33.3-34.66.14-52,0-10.6-.08-21.22.81-31.64-3-4.18-1.52-9.23-.82-13.88-.85-17.34-.1-34.67,0-52-.15-13.26-.14-26.43.47-39.65-3.06-8.12-2.17-17.22-.55-25.87-.88-18.55-.7-37.25,1.95-55.59-3.54-4.92-1.47-10.6-.34-15.93-.46-11.27-.25-22.57.75-33.63-3.17-4.2-1.48-9.23-.67-13.89-.8-8-.23-15.95.44-23.68-2.67-3-1.19-6.52-1.16-9.83-1.26-28.64-.86-56.52-6.81-84.3-13.07-6.21-1.4-13-2.68-18.17-7.69-3.46-3.39-3.91-7.75.11-9.86,8.19-4.3,16.29-8.19,25.84-9.92,25.4-4.62,50.68-9.84,76.49-11.71,4.65-.33,7.38-2.54,7.7-7.33.22-3.43,1.08-6.55,4.08-8.66a104.94,104.94,0,0,0,11.19,8.08c9,4,18.45,2.37,27.66,2.32,233-1.11,466-.76,699-.64,75.21,0,150.43,1.13,225.65.39q44.85-.89,89.71,0c142,.92,283.95-1,425.93-.56,137.31.45,274.63-.83,411.93.92C3428.47,3270.88,3470.36,3272.31,3512.12,3275.54Z" transform="translate(-1378.64 -1587.86)"/><path class="cls-2" d="M3262.35,3040.91c-3.12-19.75-1.61-39.71-2.63-59.55-.45-8.63-.39-17.28-.94-25.89s-4.06-15.53-12.52-18.7c-8.3-3.1-15.52-.61-22,5.13q-32.11,28.39-64.38,56.59c-3.49,3.07-6.8,6.4-10.59,9.05-2,1.41-5.16,2.74-7.28,2.17-9.65-2.58-20-.76-29.32-5q0-469.93,0-939.87c0-5.79-1.3-11.76,1.4-17.37,8.25-.59,10.69,6.84,14.75,11.37q151.1,168.65,203.05,389.1c11.43,48.72,17.75,98.14,21.33,148.11,3.17,44.09,2,88-1.92,131.76a875.39,875.39,0,0,1-84.82,306.33A76.83,76.83,0,0,1,3262.35,3040.91Z" transform="translate(-1378.64 -1587.86)"/><path class="cls-2" d="M2959.24,2902c-15.45-4-30.91-7.92-46.34-12-10.21-2.67-11.14-3.25-11.77-13.11-2.86-44.91-14.73-87.81-28.78-130.23-2.5-7.57-5.16-15.12-8.23-22.48-4.65-11.14-7.62-22.11-6.85-34.7,1.41-22.67-9.15-40.11-29.31-50.41-8.73-4.46-14.87-10.58-20.53-18.08a316,316,0,0,0-74.69-71.57,287.56,287.56,0,0,0-96.41-42.18c-2.74-2.19-2.7-4.31.15-6.37,45.19-23.49,82.54-55.85,110.95-98.29a289.18,289.18,0,0,0,40.62-90.66c2-7.85,4.51-12.68,14-13.41,17.3-1.35,31.28-10.47,43.55-22.35,24.55-23.8,39.74-53.15,50-85.24,4.89-15.21,8.59-30.76,8.67-46.95.15-31.52-13.54-50.15-43.47-58.79-3.74-1.08-7.57-1.83-10.87-2.61-1.81-6.64,1.17-11.51,2.46-16.47,18.64-72,13.54-142.48-12.76-211.73-1.16-3.07-1.92-6.3-2.86-9.46,41.26,17.3,79.79,39.61,117.34,63.73,5.45,3.5,8.42,7.11,7,14.6-1.67,9.07-1.41,18.55-1.41,27.85q-.09,464.46-.07,928.92C2959.67,2887.41,2959.39,2894.73,2959.24,2902Z" transform="translate(-1378.64 -1587.86)"/><path class="cls-4" d="M3051.64,2191.8c.17-15.14.17-26.8.47-38.45.21-7.77,1.54-9.3,9.66-9.23,35.39.3,30.51-5.23,30.85,28.13.2,19.32.05,38.65,0,58,0,4.66.07,9.34-.25,14-.24,3.54-1.83,6.64-5.9,6.7-13.32.18-26.64.19-40,.12-3.75,0-5.92-2.59-7.46-5.73-4.4-9-8.68-18-13.24-26.87-2-3.93-2.7-8.89-7.67-11.06-3.75,2.14-1.74,5.77-2.07,8.64a92.39,92.39,0,0,0-.1,10c0,6,0,12-.19,18-.15,4.81-3,7.17-7.67,7.22-8,.07-16,.24-24,0-7.2-.23-9-2.07-9.08-10-.24-16-.12-32-.11-48,0-13.32-.11-26.66.16-40,.15-7.51,1.81-9,9.78-9.15,11.33-.21,22.67.19,34-.18,6.44-.21,9.71,3.07,12.07,8.33,4.37,9.72,8.87,19.38,13.25,29.09C3045.53,2184.27,3047.18,2186.84,3051.64,2191.8Z" transform="translate(-1378.64 -1587.86)"/><path class="cls-4" d="M3094.12,2097c-9.2,1.91-32.75,3.12-37.52,2a6.73,6.73,0,0,1-5.4-5.22c-2.2-11.53-10.49-11.54-19.67-11.51-7.71,0-12.86,2.26-14.57,10.17-1.24,5.71-5.34,7-10.44,6.91-41.51-.83-36.22,6.72-25.67-31.58,6-21.78,12.85-43.32,19.48-64.93,3-9.85,4-10.62,13.8-10.76q19.95-.3,39.92,0c8.78.13,10.2,1,12.78,9.44,7.4,24.15,14.54,48.37,21.65,72.6C3090.69,2081.64,3094.33,2088.89,3094.12,2097Z" transform="translate(-1378.64 -1587.86)"/><path class="cls-4" d="M3074,2702.38c-3.32,0-6.66-.19-10,0-7.62.52-12.89-2-14.49-10.12-1.31-6.61-6-8-11.94-7.64-3.31.21-6.64.12-10,.06-4.49-.07-8.19,1.65-8.89,6.18-1.63,10.61-8.85,11.91-17.52,11.53-7.95-.35-15.92-.25-23.84-.89-2.62-.21-4.68-2.4-3.84-5.72.32-1.28.73-2.54,1.1-3.81,8.53-28.62,17-57.27,25.64-85.84,3-9.95,4-10.59,13.82-10.76,12.62-.21,25.25-.19,37.87,0,11.58.15,12.38.68,15.57,11.13,8.12,26.66,16.07,53.38,24.06,80.08.76,2.55,1.38,5.13,2,7.72,1.15,5-.51,7.49-5.66,7.79-4.63.27-9.29.06-13.94.06Z" transform="translate(-1378.64 -1587.86)"/><path class="cls-4" d="M3056.64,2796.8c-1.43,7.18-2.94,14.34-4.25,21.54-.88,4.85-4,6.48-8.46,6.62-1.33,0-2.66.12-4,.09-24.51-.56-23.29,4.13-28.19-22.09-.85-4.56-2.26-9-3.53-13.5-.51-1.78,0-4.19-4.06-5.17,0,11.29,0,22.29,0,33.29,0,4.87-2.81,7.25-7.49,7.3-27.43.28-24.87,2.91-24.94-22-.06-18.66,0-37.32.12-56,0-4.83,2.66-7.33,7.41-7.4,9.33-.13,18.66-.2,28-.16,18,.08,15.54-1,20.2,17.26,1.64,6.44,3.05,12.93,4.57,19.39,2.24,1.81,1.92,4.26,1.66,6.7.52-2.33.14-4.93,2.15-6.79,2.21-9.66,4.45-19.32,6.64-29,1.19-5.3,4.38-7.66,9.86-7.58,11.25.15,22.51-.13,33.76.1,8.06.17,9.72,1.61,9.79,9q.29,33.77,0,67.53c0,6.71-1.87,8.71-7.86,8.84-7.89.18-15.87,1.31-23.64-1.18-4.94-12.18-.55-25.32-4.14-36.24C3059.89,2789.83,3059.4,2793.72,3056.64,2796.8Z" transform="translate(-1378.64 -1587.86)"/><path class="cls-4" d="M3084.49,2335.67c0,9.3.43,18.63-.09,27.91-1.35,24.52-13.55,37.36-37.61,41.33a85.57,85.57,0,0,1-29.7-.69c-19.15-3.53-30.7-15.4-33.16-34.64-1-7.87-.88-15.91-.94-23.88-.1-14,0-27.92.16-41.88,0-4.54,2.24-7.57,7.15-7.63,8.64-.1,17.28-.14,25.92,0,4.73.06,7.3,2.69,7.34,7.48.08,12.63.05,25.26.15,37.89,0,5.31,0,10.65.51,15.93s4.12,9,8.5,9.62c5.15.71,10.3-3.14,10.85-9.23.72-7.92.62-15.93.72-23.89.12-10,.05-19.95.15-29.92,0-4.54,2-7.77,6.94-7.86,8.64-.16,17.28-.11,25.92,0,4.91.05,7.14,3,7.18,7.6.11,10.63,0,21.27,0,31.91Z" transform="translate(-1378.64 -1587.86)"/><path class="cls-4" d="M2984.35,2500.16c0-14-.15-28,.06-42,.12-8.22,1.61-10,8.85-10.05,17.32-.16,34.65-.27,51.95.28,5.86.19,11.75,2.13,17.44,3.87a27.34,27.34,0,0,1,8.65,4.82c14.57,11.5,15.08,27.42,12.63,43.69-2.21,14.59-11.43,23.4-25.52,27.65-8.44,2.55-17,2.94-25.67,3.09-4.72.08-7.29,2.58-7.52,7.36-.16,3.32-.1,6.68-.5,10-.45,3.66-2.52,6-6.46,6.21-2,.11-4,.28-6,.26-32-.38-27.61,4-28-27.2-.11-9.32,0-18.65,0-28Z" transform="translate(-1378.64 -1587.86)"/><path class="cls-5" d="M1496.77,3271.58c-2.25-3.72-1.39-7.75-1.16-11.71,5.57-4.93,12.4-3.89,19-3.9q54.72-.06,109.43,0c4.64,0,9.28.07,13.92-.09,4.93-.17,5.29-1.53,2.29-7.8-.56-1.2-1.14-2.39-1.71-3.58a12.41,12.41,0,0,1,9.78,6.24c4.52,8.42,11.61,10,20.14,9.33,4-.31,8,.07,12,.14-1.5,9-9.13,9.3-15.33,9.28-54.36-.18-108.59,4.86-163,4.38C1499.9,3273.83,1498.43,3272.6,1496.77,3271.58Z" transform="translate(-1378.64 -1587.86)"/><path class="cls-6" d="M2999.94,2851.9c.74,0,3.38.15,6,.38a6.39,6.39,0,0,1,5.84,4.57c3.54,10.66,7.2,21.3,10.32,32.09.8,2.75-1.73,4.68-4.66,5.12-4.72.71-9.17.49-13-3-4.68-4.37-9.26-4-13.86.43-3.08,3-7.12,3.08-11.17,2.86-4.8-.27-7.07-3.17-5.65-7.92,2.27-7.6,4.66-15.17,7.26-22.66C2985.14,2852,2985.41,2851.86,2999.94,2851.9Z" transform="translate(-1378.64 -1587.86)"/><path class="cls-7" d="M3035.3,2876.63c-4.18-2.35-7.62-5.23-8-10.52-.4-5.85,2.23-11.15,7.24-12.87,8.38-2.87,16.88-3.18,25.13.58,3.08,1.4,6,4,6.22,7.21.28,4.09-5,3.41-7,5.94.83,1,1.49,2.33,2.56,3,5.91,3.57,8.09,8.72,6.06,15.2s-7.65,8.92-13.77,9.82c-9.59,1.41-18.44-.23-25.61-7.5-3.4-3.44-2.33-6.38,3.13-7.92a22.32,22.32,0,0,1,3.95-.4c1.63.26,2.19-.41,1.59-2C3036.71,2876.77,3036.1,2876.63,3035.3,2876.63Z" transform="translate(-1378.64 -1587.86)"/><path class="cls-8" d="M3096,2873.15c0,4.62.2,9.25-.06,13.85s-2.94,7-7.62,7.13-7.7-2.24-8-6.69c-.33-4.6-.21-9.23-.32-13.84a12.52,12.52,0,0,0-3.7-8.62c-5.53-6.12-4.38-10.1,2.7-12a35.69,35.69,0,0,1,5.81-1c8.35-.81,10.83,1.27,11.29,9.32.08,1.32.06,2.64.06,4,0,2.64,0,5.28,0,7.91Z" transform="translate(-1378.64 -1587.86)"/><path class="cls-9" d="M3056.64,2796.8c-2-7.63,2.5-13.67,3.91-20.1,1.61-.2,2.46-.54,2.74-.28a2.73,2.73,0,0,1,.59,1.84q.27,22.68.49,45.38c-4.69-3.16-3.25-8.08-3.64-12.5C3060.27,2806.12,3062,2800.45,3056.64,2796.8Z" transform="translate(-1378.64 -1587.86)"/><path class="cls-10" d="M3035.3,2876.63c3.19-.5,6.43-.94,9.29.95.95.62,2.12,2.13,1.94,3-.46,2.18-2.51,2.66-4.36,2a71.06,71.06,0,0,1-6.9-3.39C3035.24,2878.3,3035.25,2877.47,3035.3,2876.63Z" transform="translate(-1378.64 -1587.86)"/><path class="cls-11" d="M3035.81,2775.91c.52,2.47.26,6.07-1.82,6.1s-2.49-3.52-2-6Q3033.91,2776,3035.81,2775.91Z" transform="translate(-1378.64 -1587.86)"/><path class="cls-12" d="M2278.79,3068.58c-16,.27-31.29-4.38-46.92-6.64-18.25-2.64-36.33-6.46-54.59-9.09-7.77-1.11-15.79-.49-23.7-.65-2.86-.06-5-1.15-5.89-4,7.19-10.05,6.29-21.28,4.91-32.65-11.54-95.18-21.72-190.51-33.33-285.67-4.33-35.44,9-56.1,39.51-63.21,192.71-.55,385.39-.15,578.08-.22,6,0,12-.16,17.8,1.32,11.54,4.43,11,14.4,9.36,23.53-16.14,91-50.81,173.6-113,243.22-78.57,87.93-180,127.47-294.71,138.38C2330.4,3075.32,2304.6,3070.61,2278.79,3068.58Z" transform="translate(-1378.64 -1587.86)"/><path class="cls-13" d="M2232,1659.68c4.24.5,7.39,2.52,9.05,6.58,3.47,8.49,7.24,16.88,10.3,25.52,1.56,4.4,2.91,8.63,6.49,11.89,6.53,5.95,16,6.08,20.49-1.41,8.92-14.91,22.43-23.29,37.66-29.86,29.11-23.56,66.25-37.48,99.51-33.29,35.11,4.44,63.46,1.7,96.52-9.91,31.72-11.14,68.38-2.79,102.47,3,22.18,3.78,44.6,7,65.73,15.48,4,.79,7.33,3.63,11.44,4.24a25.79,25.79,0,0,1,8.3,2.39c6.93,2.76,14.1,5,20.14,9.64,50.64,24.75,86.51,64.22,114.73,114-9.17,3.17-17.16,3.21-24.28.68-12.19-4.31-24.54-1-39.32-4.72,6.19,9.85,9.94,17.44,16.13,23.48a15.34,15.34,0,0,1,4.78,10.64c19.43,63.2-10.9,118.06-77.87,135.61-70.8,18.55-142,20.16-212.6-3.22-36.7-12.15-72.46-26.65-108.1-41.52-17.21-7.18-34.47-14.65-53.18-16.68-22.2-2.41-32.59,8.5-29.73,30.77,1.87,14.59,7,28.4,11.74,42.27,2.29,6.68,6.86,13.4,1.64,20.77-16.88-4.68-31.74-12.65-43.8-25.69-9-9.68-19.44-18-24.54-30.82-2.72-6.83-9.81-8.41-15.6-11.44-18-5.84-17.64-5.81-18.94,14.3-4.18,64.91-25.84,124-60.42,178.66-3.76,5.94-7.43,13.06-16.74,11.07-6.78-7.77-7.83-18-10.77-27.19s-3.59-19.29-5.24-29c-13.13-72.16-7.91-142,26.7-208a93.47,93.47,0,0,0,5.41-7.66,17.19,17.19,0,0,1,4.27-4.32c8.36-12.41,18.65-22.14,33.93-25.47,3-.66,7-2.19,7.53-5.63.86-5.19-4.47-5.75-7.59-7.69a37.73,37.73,0,0,0-9-4.21c-16.72-5-31-14.5-45.65-23.58-10.83-6.73-20.08-14.89-27.35-25.32-12.54-22.21-11.65-26.8,7.74-40,28.85,4.45,56.18,13,80.49,29.75,3.24,2.24,6.6,4.32,9.95,6.38,7.85,4.84,13.15,3.79,18.48-3.46,1.66-2.26,2.62-4.74,1.55-7.33-3.48-8.4-4.2-17.89-10-25.36-4.94-8-5.32-17.5-6.93-26.29C2215.67,1667.88,2216.79,1657.4,2232,1659.68Z" transform="translate(-1378.64 -1587.86)"/><path class="cls-14" d="M2188.11,2156.42c9.63-19,20-37.56,27.76-57.42,16.9-43.05,26.3-87.84,31.88-133.57.4-3.3.47-6.67,1.19-9.89a2.77,2.77,0,0,1,4.51-1.71c4.08,3.35,7.83,7.12,11.64,10.81,25.36,24.52,56.63,36.75,90.56,43.22,6.47,1.23,13.66,2.29,18.34-4.23,5.15-7.17,2-13.7-2.22-20.22-4-6.13-7.43-12.59-10.81-19.07-1.18-2.27-1.84-5,.3-7.52,5.29-.65,8.08,3.65,11.61,6.27,52.53,39,111.79,60.65,176.33,69.5,37.19,5.1,74.39,4.71,111.63,2.81,15.23-.78,30.34-3.81,45.5-5.79,3.3-.43,6.59-1,9.9-1.12a5.2,5.2,0,0,1,5.45,4.71,83.56,83.56,0,0,1,1.18,11.91c.76,33,8.67,64.49,21.12,94.93,2.44,7.54,4.75,15.29,5,23.1.26,6.74,1.45,15.38-9.08,16.93-9.73-14.41-20.45-27.8-34.68-38.24-69.78-51.18-166.25-19.08-193.88,59.28-2.41,6.84-1.35,15.69-7.12,20.29-6.27,5-13.83-1.41-21.05-1.33-12,.14-23.95-.36-35.66,3-4.51,1.31-7.75-.37-9.09-5.08-1.26-4.48-2.36-9-3.8-13.43-15.69-47.82-57.28-86.88-118.83-87.4-50.55-.42-89.07,23.58-113.29,68.77-3.06,5.7-5.62,11.66-8.69,18.07-6.8-3.08-8.54-8.75-10.47-14.26C2177.84,2177.65,2184,2167.18,2188.11,2156.42Z" transform="translate(-1378.64 -1587.86)"/><path class="cls-15" d="M2278.79,3068.58c20.62-.19,41.24-.33,61.86-.59,10.58-.13,21-.27,31.58-2.88,11.41-2.81,23.52-2.1,35.33-4.65,32.41-7,64.19-15.48,95.23-27.56,37-14.39,69.43-36,100.76-59.41,11.62-8.7,21.07-20.27,31.52-30.52,25.73-25.27,46.29-54.22,64.59-85.33,26.56-45.18,42.84-94,55-144.39,3.23-13.36,7-27.05,5.34-41.22,34.71-16.28,68.1,8.36,65,49.07-2.34,31.07-5.22,62.13-8.38,93.14-7.54,73.9-14.11,147.89-21.22,221.83-.77,8,2.49,15.78.51,23.72-23.69-5.21-47.28-3.15-71.24-1-77.69,7-154,21.7-229.9,38.88-12,2.72-23.64,3.72-35.55,1.86-34.8-5.45-69.57-11.15-104.35-16.79-22.3-3.62-44.61-7.23-66.88-11C2284.89,3071.18,2281.88,3069.65,2278.79,3068.58Z" transform="translate(-1378.64 -1587.86)"/><path class="cls-14" d="M2252.07,2352.88c5.47,2.34,10.91,4.78,16.43,7,70.11,28.14,149-11.89,167.89-85.16.67-2.57,1.42-5.12,2-7.7,3.88-17,3.87-17,21.1-19.44,31.82-3.81,35.69-1.33,43.75,28.1,19.39,70.74,83.65,109.54,157,95,6.87-1.36,15.36-5.23,20.06,2.83,4.56,7.83-2.51,13.72-6.93,19.19-39.59,49-91.81,78-151.74,94.27-55.86,15.13-112.4,19.92-169.71,9.12-31.44-9.66-59.45-25.29-83.41-48-24.38-27.21-48.17-54.86-63.52-88.52-7.44-16.31-13.84-33-16.74-50.86,2.42-10.88,6.24-12.84,12.76-2.28C2213.56,2326.77,2227.68,2345.51,2252.07,2352.88Z" transform="translate(-1378.64 -1587.86)"/><path class="cls-16" d="M2324,1976.05c-3.32-9.33-6.87-18.59-9.9-28-3.24-10.08-6.44-20.21-8.84-30.51-2.63-11.25-2.41-22.49,4.59-32.51,3.1-4.42,6.85-8.56,12.69-8.67,10.55-.2,20.92-.91,31.53,2.28,23,6.9,44.67,16.76,66.77,25.74,39.91,16.22,79.76,32.77,122.26,41,16.13,3.13,32.33,7.07,49,6.54,18.49-.58,37.23,2.41,55.38-3.67a10.32,10.32,0,0,1,4-.19c20.19,1.49,39.4-4.06,58.71-8.46a130.87,130.87,0,0,0,53.22-26.11c12.47-10.07,20-24.6,24.45-40.21,3.06-10.85,4.95-21.88,4.36-33.34-.55-10.61-.09-21.27-.07-31.91,10,10.16,15.84,22.9,21.51,35.6,11.4,25.54,20.52,52.12,25,79.59,4,24.75,8,50,5.17,75.29-5.17,46.43-15.33,91.54-37.55,133.21-5.63,10.56-10.93,21.3-16.69,31.79-1.51,2.74-4.92,3-6.62.39-8.95-13.87-19.66-26.53-24.78-42.91-5-15.84-10.07-31.63-12.92-48-2.64-15.13-1.27-30.53-.92-45.82.08-3.76,2.53-5.91,6-7.07,5-1.69,10.16-3.2,15.07-5.22a54.71,54.71,0,0,0,10.49-5.66,8.42,8.42,0,0,0,3.5-8.76c-.8-4.39-3.63-7-7.85-8-4.82-1.16-9.08.57-13.44,2.49-22.69,10-46.92,13.27-71.16,17.36-36.47,6.15-73,2.94-109.48,3.33-17.84.19-35.44-3.92-52.94-7.62-34.63-7.33-67.86-18.41-99-35.42-23.43-12.78-45.22-27.78-64.74-46-3.4-3.17-6.62-6.73-10.55-9.07a11.7,11.7,0,0,0-17.83,9c-.67,7.26-.94,14.56,1.82,21.68a180.52,180.52,0,0,1,6.1,19c1.32,5,7.54,10.3,4.14,14.4-4.68,5.64-10.6-2.89-16.44-1.83-1.28-1.32-2.6-2.62-3.94-3.88Z" transform="translate(-1378.64 -1587.86)"/><path class="cls-17" d="M2316.66,3219.74a220.94,220.94,0,0,1,.2-39.76c6.43-7.66,15.75-9.61,24.66-12,119.3-32.32,239-63.26,361.8-79.21,36.32-4.72,73.7-14,109.84,3,12.79,5.61,21.42,15.32,27.24,27.77,7.76,35-11.92,58.88-35.18,79.16-21.42,18.67-47.54,27.79-77.12,27.67-127.68-.51-255.38-.17-383.07-.3C2335.23,3226,2324.85,3227.55,2316.66,3219.74Z" transform="translate(-1378.64 -1587.86)"/><path class="cls-18" d="M3079.91,3027.76c13.48-4.92,27-5.87,40.59-.47-.52,1.47-1.86,1.51-2.81,2.1-1.55.94-1.4,1.05-.24,1,15.25-.68,29,5.32,43.07,9.9,39.31,15.14,69.33,40.78,88.27,78.68,3.41,6.84,8.78,13.82,3.47,22.22-7.64,4.89-15,3.66-22.16-.75-1.14.37-1.56-2.86-2.66-1.14-1.39,2.18-.42-1.23,1.38.95,8.8,7.08,20.75,5.46,29.86,11.38,8.28,7.75,17.15,14.86,24.9,23.08,22.7,24.11,23.08,60,1.23,84.8-26.82,4.62-53.89.54-80.79,2.5-34.6-.44-69.25,1.9-103.8-1.44-42.76-18.22-65.28-59.14-61.23-114.53,2.64-36.12,14.05-70.27,28-103.55C3069.64,3036.1,3074.22,3031.46,3079.91,3027.76Z" transform="translate(-1378.64 -1587.86)"/><path class="cls-19" d="M1927.3,3252.51c-15.55-4.4-28.54-12.08-35.5-27.54a123.62,123.62,0,0,1-5.74-37.06q0-75.49,0-151c0-12-.09-24.22,12.21-31.54,47.26-2.56,94.55-1.5,141.84-.52,4.14,2.3,4.35,6.34,4.33,10.31q-.32,66.41-.74,132.82c-9.56,54.34-41.72,88.58-93.63,105.24C1942.44,3255.67,1934.74,3258.12,1927.3,3252.51Z" transform="translate(-1378.64 -1587.86)"/><path class="cls-20" d="M2719.9,2631.75c-6,.18-12,.52-17.92.52q-249.3,0-498.61,0c-6.62,0-13.25-.54-19.87-.83-1.15-8.26,3.76-14,8.94-19,42-40.31,91.75-66.75,147.84-81.55,5-1.32,10.34-3.12,15.16.91,9.3,14.61,18.45,29.28,32.62,40,39.71,30.06,83.6,35.46,130.65,22.49,7.05-1.94,14-4.38,20.94-6.59a497.54,497.54,0,0,1,85.9-12.75c36-2.31,64.82,15.22,89.83,39.47C2719.94,2618.87,2724.84,2624.32,2719.9,2631.75Z" transform="translate(-1378.64 -1587.86)"/><path class="cls-21" d="M1684.09,3068.18c6.63-.29,13.27-.81,19.91-.83q66.91-.1,133.83,0c5.33,0,10.65,0,16,.25,3.81.15,6.1,2.23,6.25,6.14.19,4.65.26,9.31.26,14,0,30.63,0,61.26,0,91.89,0,6.65-.78,13.57.73,19.91,3.37,14.15-1.49,24.59-12.24,33.2-35.91,9.26-72.44,8.17-108.07,1.25-24.92-4.84-41.39-24.06-47.73-48.74-8.76-34.07-9.32-69.46-13.47-104.27C1679,3076.17,1680.85,3071.82,1684.09,3068.18Z" transform="translate(-1378.64 -1587.86)"/><path class="cls-22" d="M1763.88,2672.09c-.17,7.69-5.2,13.55-7.72,20.36-15.54,41.94-25.87,85.11-32.43,129.32-6,40.24-9,80.62-7.72,122.61-6.73-2.57-6.79-7.83-7.85-12.44-19.74-79.85-32-161.05-33-243.1-1-80.07,7.68-159.45,49.94-230.67,5.42-9.13,7.82-23.77,24.34-20.6,7.4,26.93,7.79,54.69,8.47,82.23C1759.13,2570.6,1762.66,2621.3,1763.88,2672.09Z" transform="translate(-1378.64 -1587.86)"/><path class="cls-17" d="M2068.54,3172l-.07-15.95c3.48-4.88-.26-11.19,3.16-16.09.19-2.88.44-5.73,2.76-7.87,24-41.77,59.72-57.4,107.1-49.47,63,10.55,125.91,21.07,188.38,34.23,6.38,1.35,13.37,1.75,17.79,7.77-19.47,6.21-38.91,12.52-58.43,18.59-12,3.73-24.51,6.16-32.19,17.82-2,3.06-5.9,2.78-9.16,1.86-21.65-6.1-38.64,2-54,16.74-11.43,10.95-22.81,22.21-37.89,28.41-35.2,7.87-69.66,7.65-102.6-9.33C2081.91,3192.74,2071.72,3185.61,2068.54,3172Z" transform="translate(-1378.64 -1587.86)"/><path class="cls-23" d="M2351.92,2496.06c22,0,43.93-.17,65.89.05,51.91.53,101.47-11.21,149.21-30.25,25.31-10.1,47.77-25.5,69.1-43,15.65-12.84,28.31-27.83,41.09-43,1-1.22,1.39-4.19.61-5.39s-3.67-2.17-5.18-1.72c-16,4.77-32.07,8.39-49,7.19-50-3.53-102.87-35.54-120.19-87.66-3.13-9.42-7.46-18.52-7.71-28.74-.17-7-4.58-10.85-10.72-12.8a61.75,61.75,0,0,0-11.63-2.32c-4.6-.53-9.27-.58-13.91-.85,13.16-6.86,25.87-2,38.57,1.63,3.39,1,5.34,3.72,6.16,7.21,1.06,4.53,2.18,9.05,3.3,13.57,12.88,52.25,45.86,85.17,98.06,96.16,40.63,8.56,77.88-1.7,109.15-30.2,24.71-22.51,38.66-50.4,41.05-83.79.45-6.27,1.67-11.81,6.13-16.32,5.1-5.14,7.25-12.82,14-16.42,3.9.66,3.34,3.65,3.31,6.09-.89,82.13-27.23,154.09-87.16,211.58-35.68,34.23-78.27,57-126.57,68.67q-106.24,25.66-210.41-7.32C2353.89,2498.05,2353,2496.87,2351.92,2496.06Z" transform="translate(-1378.64 -1587.86)"/><path class="cls-24" d="M2316.66,3219.74c6,.11,12,.32,18,.32,131.66,0,263.33-.43,395,.35,30,.17,55.15-10.76,76.14-29.34,20.69-18.3,32.72-43.06,34.66-71.58,28.91,40.05,11,95.92-22.52,117.76-8.32,5.41-17.18,10-25.79,14.93-8.16,8.48-18.75,9.37-29.57,9.37-141.28.11-282.56,2.08-423.84,0-7.91-.11-16.21.71-22.4-6Z" transform="translate(-1378.64 -1587.86)"/><path class="cls-22" d="M1647.56,2639.76c.16,20.55.23,41.09.5,61.64.34,26.51,4.11,52.72,6.76,79,3.44,34.33,10.11,68,17.2,101.69,4.64,22,10.37,43.75,15.62,65.61-10.64,5.89-16.38-1.3-20.82-8.77-63.76-107.15-103.5-221.1-95.92-347.82,1.5-25.17,7.1-50,14.63-74.14,2.19-7,4.25-14.12,11.61-17.74a5.67,5.67,0,0,1,5.57,2.52C1619.77,2547.07,1635.88,2592.69,1647.56,2639.76Z" transform="translate(-1378.64 -1587.86)"/><path class="cls-14" d="M2384.59,2171.59c33.89,29.53,45.13,89.71,7.9,135.12a100.21,100.21,0,0,1-134.59,19.52c-43.11-29.42-56.27-86.88-30.92-132.54,28.19-50.77,90.85-62.28,129-41.67.94,3.82-1.4,5.65-4.3,7.16-7,2.57-14.4,2.41-21.61,1.92-19.48-1.31-34.07,8.26-45.73,18.66,18.64-3.76,38.84-18.71,60.52-1.21-1.67,4.37-5.72,4.93-9.51,5.92-43.52,11.32-48.4,21.39-29,59.86,1.62,10.36-3.61,20.94,1.12,31.18,9.45,27.74,20.71,37.95,38.43,34.75,17-3.07,28.6-21.6,29.08-46.58.06-3.31-.13-6.62-.26-9.93-.19-4.69-1.33-9.38,0-14.06,14.71-16.79,15.4-33.65.23-50.6,7.54-3.49.8-9.84,2.87-14.45C2379.37,2172,2381.2,2170.08,2384.59,2171.59Z" transform="translate(-1378.64 -1587.86)"/><path class="cls-22" d="M1823.77,2951.31l-43.78.34c-3.58-2.47-7.67-1.62-11.58-1.69-29.11-.5-30-.54-28.19-29.66,5.49-88.55,19.74-175.14,61.22-255.09A451.93,451.93,0,0,1,1850,2590c7.42-9.24,14.56-19.13,26.71-23.05a4.72,4.72,0,0,1,5.18,2.91c-1.44,33.52-13,65-21.32,96.9-21.33,81.66-41.6,163.61-63.75,245.06-7.46,27.43-7.16,27.5,20.09,31.87a19.1,19.1,0,0,1,5.56,2.13C1824.55,2947.25,1825,2949.08,1823.77,2951.31Z" transform="translate(-1378.64 -1587.86)"/><path class="cls-14" d="M2630.72,2142.53c53.15,0,100.39,41.66,100.3,100.46-.1,61.82-51.11,101.61-102.22,100.91-47.26-.66-99.59-36.77-99.25-101.82C2529.87,2182.11,2578.4,2142,2630.72,2142.53Z" transform="translate(-1378.64 -1587.86)"/><path class="cls-25" d="M2948.19,2944.15c-.14,34.67-.53,69.33-.28,104,.08,11.35-2.95,20.67-11,28.87-17.91,18.32-30.83,40-40.51,63.58-1.82,4.45-3.3,8.48-8.11,10.63-10.74,4.81-14.07,3.17-16.26-8.25-3.58-18.73-12.17-35.11-24.61-49.32-5.67-6.48-12.49-12-19-17.68-2.67-2.34-4.58-4.92-4.49-8.44.28-11.3-.79-22.65,1.52-33.87,1.72-8.29,5.55-14.25,14-17.69,9.18-3.73,18.09-8.17,25.7-15.09,21.91-19.92,31.82-45.27,34.75-74,.51-5.08-1.54-10.9,4.21-14.46,5.42,8.49,12.51,14.07,22.67,16.78C2935.31,2931.46,2944.53,2934.28,2948.19,2944.15Z" transform="translate(-1378.64 -1587.86)"/><path class="cls-25" d="M3079.91,3027.76c-17.72,34.55-29.06,71.36-35,109.45-5.44,34.74,1.92,67.49,23.87,96a43.63,43.63,0,0,0,7.19,6.7c6.66,5.43,13.43,10.72,20.15,16.07-24.29,9.91-48.53,10.36-72.73-.34.64-4.6.59-9.43,2-13.75,9.8-29.14-8.25-70.29-39.46-85.23-15.81-7.55-31.93-12.83-49.59-12.68-2.65,0-5.32,0-8-.16-7-.52-9.93-4.58-6.51-10.58,6.23-10.93,12.16-22.32,20.17-31.88,16.65-19.88,34.8-38.3,58.74-49.94,17.32-8.42,34.36-17,53.52-21.08C3062.89,3028.5,3071.33,3028.12,3079.91,3027.76Z" transform="translate(-1378.64 -1587.86)"/><path class="cls-26" d="M1684.09,3068.18q3.12,28.52,6.23,57c.57,5.25,1,10.52,1.64,15.76,1.54,13.11,2,26.48,5,39.27,7.94,34.48,39.87,53.08,64.41,52,22.52-1,45.11-.37,67.66-.33,6.62,0,13.24.49,19.85.76-5.52,10-15.46,14.28-24.81,19.34-2.22,2.56-4.8,5.14-8,5.68-32.12,5.33-64.25,7.93-96.19-1.29l-18-.43c-35.54-.8-59.54-30.28-62.25-54.61-2-17.84-4.7-35.6-6.87-53.41-2.74-22.44-5.26-44.91-7.86-67.37-.16-1.32-.21-2.65-.27-4-.31-6.19,1.66-8.94,7.61-8.95C1649.5,3067.64,1666.79,3068,1684.09,3068.18Z" transform="translate(-1378.64 -1587.86)"/><path class="cls-27" d="M2156.06,2671.81c-21.6,7.47-31.65,20.61-32,42.29-.13,7.94-.1,15.79,2.37,23.66,3.57,11.39-.36,24,5,35.27-1.13,17.37,4.74,34.1,4.64,51.37-.08,14,5.93,27.29,4.36,41.41,6.6,15.7,2.57,32.78,6.64,49.12,3.12,12.49,2.68,26.15,4.6,39.29,3.06,20.89,3.86,42.07,7.63,62.92,1.17,6.46.82,13.26.71,19.89-.14,9-.42,9-12.29,11.12-5-18.08-5.07-36.85-7.45-55.28-5.35-41.59-9.92-83.28-14.73-124.93q-6.77-58.52-13.37-117.06c-2.12-18.51-4.33-37-6.37-55.54-2.17-19.78,5.62-32.19,24.79-39.84,6.45-2.53,13.2-1.38,19.8-1.38q296.91-.1,593.83-.06a22.12,22.12,0,0,1,4,0c6.45,1.18,17.06-3.89,17.41,7.32.41,13.19-11.39,8.29-18.06,8.3q-284.91.41-569.83.3C2170.49,2670,2163,2668.3,2156.06,2671.81Z" transform="translate(-1378.64 -1587.86)"/><path class="cls-28" d="M3023.35,3255.61l72.73.34L3204,3256c24.14,4.47,48.51.75,72.73,2.11,6.42.36,13.2-2.39,19.25,1.86,33.59,1.14,67,5.64,100.73,4.33,24.46,6.78,50,1,74.71,6.84,8.81,2.08,18.42.73,27.67,1,4.59.13,9.35-.32,13,3.38-4.63.32-9.25.93-13.87.93q-450.27-.16-900.54-.46c-16.61,0-33.22-.32-49.83-.49,2.23-9.92,10.77-8.86,17.56-9.22,45.13-2.44,90.18-6.78,135.44-6.26,37.17.42,74.23-4.52,111.44-2,5.95.4,12.23.79,15.54-6l4.31.11c42.72-4.23,85.54-1.68,128.3-1.9,5.53.29,11.09-.08,16.61.34,9.09,1.64,17.52-2.91,26.44-2.9.81,4.78,2.68,8.47,8.41,8.27C3015.74,3255.77,3019.55,3255.71,3023.35,3255.61Z" transform="translate(-1378.64 -1587.86)"/><path class="cls-29" d="M1496.77,3271.58c18.54.38,37.14,2.05,55.44-2.68a22.27,22.27,0,0,1,5.94-.55c34.5.61,68.67-6.22,103.24-4.69,6.41.29,13.42,1.74,19-3.48l39.52-.25c34.8-4.16,69.78-.75,104.65-2.35,10.42-.47,21,2.38,31.23-1.64l3.31-3.33c10.08-2.68,19.87-2.67,29,3.24l40-.12c23.77-3.2,47.39-10.2,71.59-2.88,14.12,4.53,25.24,4.38,38.88-.49,18.06-3.89,36.1-1.73,54.14.23,16.15,6.32,32.62,4.32,49.07,1.71,1-.16,1.81-1.72,2.7-2.64,9.15-2.66,18.1-.57,27.09,1.05,11.15,3,22.54,1.91,33.78,1.61,33.3-.9,66.16,3.22,99,7.74,47-4.85,93.55,2.85,140.32,4.42,6.17.2,13.8.07,15.48,9-4.64.29-9.27.84-13.9.84q-463.77.09-927.52.07c-5.33,0-10.66-.05-16-.3C1499.88,3276,1497.93,3274.19,1496.77,3271.58Z" transform="translate(-1378.64 -1587.86)"/><path class="cls-30" d="M2156.06,2671.81a10.92,10.92,0,0,1,8.83-3.77q9,0,18-.05,278.7,0,557.42,0c6.58,0,13.37,1.23,19.68-1.43a5.93,5.93,0,0,0,2.76-4.67c-.05-1.6-1.61-3.64-3.08-4.55s-3.79-1.07-5.75-1.12c-6-.16-12-.13-18-.13q-289.71,0-579.4,0c-8.65,0-17.31-.34-26-.52,2.59-2.43,5.8-3.11,9.19-3.16q9-.14,18-.13l630,.11c4,0,8-.12,12,0,24.76,1,39.67,17,37.83,41.43-1.94,25.91-4.32,51.79-6.76,77.66-3.38,35.81-7,71.6-10.49,107.4q-5.58,57.69-11,115.39-2.82,29.85-5.42,59.72c-.45,5.13-3,6.93-7.9,5.84-6.34-4.78-10.08-11.13-7.63-18.91,6.07-19.32.85-39.87,7-59.17,1.17-3.66.45-7.93.58-11.92.33-9.94-.76-20,3.2-29.58a4.55,4.55,0,0,0,.3-2c-1.18-19.38,4.81-38.18,4.59-57.49-.09-8,0-15.89,2.72-23.66,1.27-3.64,1-7.88,1.12-11.86.33-9.95-.55-20,3.28-29.58a9,9,0,0,0,.49-4c-1.76-22,5.63-43.48,4.49-65.49-.28-5.35,1.09-10.48,2.2-15.72,2.65-12.51,3.06-24.92-3.39-36.88-7.6-14.08-18.49-22.21-34.94-21.84-6.66.15-13.32.18-20,.26l-582-.12C2170.73,2671.91,2163.39,2671.85,2156.06,2671.81Z" transform="translate(-1378.64 -1587.86)"/><path class="cls-31" d="M2719.9,2631.75c-.05-4.22-1.94-7.56-4.85-10.5-20-20.14-42.92-35.24-71.19-40.43a85,85,0,0,0-33.55.49c-21.34,4.69-42.82,7.78-64.73,6.93-2-.08-3.95-.34-5.93-.52a52,52,0,0,1,6-4.94c20.42-12.36,36.41-28.81,46.4-50.61,3.32-7.25,8.43-9,15.88-8.79,11.45.31,22.42,2.95,33.24,5.91,55.48,15.19,101,46.08,138.57,89.18a29.46,29.46,0,0,1,3.61,4.75c1.24,2.19,3.58,4.6,1.46,7.13-1,1.2-3.42,1.72-5.19,1.71C2759.73,2632.05,2739.82,2631.88,2719.9,2631.75Z" transform="translate(-1378.64 -1587.86)"/><path class="cls-32" d="M2683.9,1652.09c-21.36-4.3-42.68-8.78-64.08-12.85-22.74-4.33-45.61-7.63-68.86-7.41q-17.92.18-35.86-.1c-5.58-.07-10.29,1.3-14.37,5.41-16.86,17-38.25,16.21-59.62,14.26a23.45,23.45,0,0,1-12.53-5.6c-6.44-5.7-12.42-4.52-20.12-2.87-31.83,6.86-62.39,17.43-92.52,29.47-3.81-3.61-.74-6.21,1.79-7.92,11.55-7.78,23-15.77,35.13-22.61a168.7,168.7,0,0,1,27.37-11.85c18.13-6.36,36.15-13.33,55.39-15.8,17-2.19,34.09-5.38,51.19-5.84,21.81-.58,43.9-2.79,65.44,3.35,38.83,1.47,75.93,11.1,112.3,24,10.6,3.76,20.92,8.3,31.37,12.49q2.1,1.83,4.15,3.71c1.24.06,2.47.15,3.71.26,1,3.63.24,5.53-4,4l-7.79-.57C2689.76,1653.48,2686.13,1654.38,2683.9,1652.09Z" transform="translate(-1378.64 -1587.86)"/><path class="cls-33" d="M2962.83,3255.76c-39.3-.08-78.59-.12-117.89-.32-4.42,0-9.48,1.41-12.77-3.35,21-16.62,34.83-37.74,40-64.12a15.85,15.85,0,0,1,9.13-12c8.28-4.12,16.35-8.83,26.06-8.57,26.48,0,43.6,14.47,56.06,36.22a51.93,51.93,0,0,1,4.82,12.28C2968.9,3229.52,2974.12,3243.78,2962.83,3255.76Z" transform="translate(-1378.64 -1587.86)"/><path class="cls-14" d="M2119.45,2112.22c9.07,20.56,16.4,42,29,60.82,3.11,4.66,3.54,9.76,3.62,15.14.42,27.79-1.29,55.63,1.56,83.38.38,3.61-3,5.94-6.58,4.75-11.68-3.89-20.83-11.53-28.68-20.59-14.38-16.59-26.51-34.63-33.17-55.87,1.25-3.28.92-6-2.58-7.74-1.84-.83-2.24-2.28-1.73-4.1,2.19-8.75-2-16.58-3.45-24.82C2072.63,2136.31,2092.72,2112,2119.45,2112.22Z" transform="translate(-1378.64 -1587.86)"/><path class="cls-34" d="M2856.07,2764a474.7,474.7,0,0,1,24.69,108.4,226.36,226.36,0,0,1-.49,51.52,122.44,122.44,0,0,1-12.7,41.67c-6.69,12.95-16.88,22.06-29.4,28.87a7.93,7.93,0,0,1-5.59.47c-2-.62-2.3-2.7-2-4.88.53-4,.91-7.93,1.06-11.91,1-25.24,4.34-50.24,7.27-75.3,1.85-15.82,1.83-31.75,4.16-47.62,3-20.33,3.42-41,5.26-61.51.89-9.91,2.49-19.75,3.77-29.63C2853.38,2762.25,2854.71,2762.13,2856.07,2764Z" transform="translate(-1378.64 -1587.86)"/><path class="cls-35" d="M2800.14,2200c-1.2-7.33-1.15-14.17,3.17-21,13.51-21.32,24.61-43.91,34.24-67.25,3.19-7.74,5.66-8.71,13.94-7.57,20.09,2.75,31.68,15.6,32.63,36.18.81,17.59-4.31,34.1-9.7,50.46-2.46,7.47-4.42,15.34-9.81,21.54-6.11,6.84-11.85,13.88-21.07,17.2C2823.28,2236.81,2809.07,2227.31,2800.14,2200Z" transform="translate(-1378.64 -1587.86)"/><path class="cls-36" d="M1763.88,2672.09c-6.46-2.93-7.74-8.49-7.74-14.87,0-18.65-.13-37.3-.26-55.95-.06-8,0-15.85-2.4-23.72-1.53-4.93-1.23-10.52-1.3-15.82-.21-16-.12-32-.3-47.95a242.39,242.39,0,0,0-2.54-29.65c-2.11-15.73-1-31.88-1.2-47.86l2.78-.9c19.5,14,22.84,37.24,32.33,57,.72,2.9,1.49,5.79,2.21,8.69,8.4,24.15,12,49.43,17.75,74.19,1.25,7,.23,14.09,1.52,21.06l-1.59,3.77a42.55,42.55,0,0,1-2.66,4C1786.74,2625.89,1774.92,2648.78,1763.88,2672.09Z" transform="translate(-1378.64 -1587.86)"/><path class="cls-37" d="M2813.16,3091.72c-4.64-.22-9.46.29-13.89-.78-17.78-4.29-35.47-4-53.27-.39a63.8,63.8,0,0,1-11.85,1.24c-28.64.27-56.47,6.47-84.58,10.87-28.8,4.52-57.23,10.75-85.76,16.56-44.16,9-87.95,19.56-131.57,30.79-35.94,9.25-71.65,19.38-107.49,29-2.53.69-5.26.65-7.89.94-.06-2.62-.65-5.37-.07-7.85,1.05-4.52,5.38-5.7,9.08-6.84,23.54-7.22,47.08-14.48,70.74-21.28a2086.15,2086.15,0,0,1,217.72-50.25c34.73-6.07,69.6-11.43,104.81-14.18,13.26-1,26.5-2.49,39.77-3.44,16.31-1.17,31.83,1.78,46.18,9.93l2,1.5Z" transform="translate(-1378.64 -1587.86)"/><path class="cls-38" d="M2460.14,3275.49c-5-4.55-11.31-3.43-17.13-3.3-28.59.6-56.77-6.07-85.4-4.56-17.57-4.68-35.61-3.07-53.47-3.87-1.37-.75-1.87-1.54-1.48-2.4s.82-1.32,1.25-1.32c4.61-.15,9.53.54,12.37-4.49,7.3.14,14.6.42,21.9.42q208.25,0,416.49.24c12.77,0,24.95-2.72,37.42-4,12,6.45,23.87,5,35.77-.2-.54,3.41-1.63,6.65-5.47,7.32a61.51,61.51,0,0,1-9.9.52c-13.92.13-27.85.09-41.77.29-11.88.18-23.69-.24-35.53,2.71-7.54,1.87-15.82.71-23.76,1-19.8.82-39.79-1.56-59.31,3.68a6.26,6.26,0,0,1-2,.11c-28.55-1.54-56.66,5.17-85.18,4.55-5.8-.13-12.06-1.22-17.08,3.32Z" transform="translate(-1378.64 -1587.86)"/><path class="cls-16" d="M2144,2112.13c5-2.37,8.48-6.22,11.34-10.8,26.43-42.45,45.82-87.92,55.6-137,3.18-16,7-32.31,5.25-49.07-.48-4.52-.52-9.2,1.48-13.67,3.52-7.91,9.52-9.12,15.06-2.7,2.57,3,4.92,6.11,7.37,9.18a46,46,0,0,0-8.62,21.56c-2.85,22.26-4.78,44.61-7.82,66.82-1.51,11.09-5.13,21.87-7.52,32.84C2206.7,2072.45,2191,2113,2166.8,2150c-1,1.51-2.92,2.41-5.2,4.21C2154.92,2140.09,2144.82,2128.15,2144,2112.13Z" transform="translate(-1378.64 -1587.86)"/><path class="cls-39" d="M1748.14,2436.27c-9.13,5.29-12.9,14.8-17.82,23.24-21.28,36.53-34.69,76.06-41.32,117.6-3,18.85-4,38.21-6,57.22-2.33,21.9-2.48,43.65-2.79,65.5-.13,9.26-.64,18.57,2.64,27.62,1.08,3,1,6.59.83,9.87-1.49,23.33,1.91,46.39,4.77,69.34,4.4,35.41,9.42,70.79,17.72,105.56a78.32,78.32,0,0,1,2,19.72c-7.89-12-8.62-26.2-11.66-39.53-6-26.44-10.9-53.17-15.51-79.9-2.48-14.34-2.51-29.11-5.31-43.36-4.15-21.09-3.49-42.31-4-63.52-.19-8-4.15-15.37-3.56-23.59.81-11.22-1-22.55,2.72-33.66,1.43-4.24.9-9.23.9-13.87,0-45.62,9.24-89.45,24-132.44,10.1-29.34,26.35-55,44.35-79.76,1.94-2.67,4.31-5.09,7.79-5.88,3,6.5,9.74,12.88.62,19.76Z" transform="translate(-1378.64 -1587.86)"/><path class="cls-39" d="M1879.86,2567.24c-24.36,19.44-40.61,45.38-57,71.18-33.66,53-52.48,111.76-65.24,172.44-5.56,26.42-10.67,53.37-9.8,80.8a54.74,54.74,0,0,1-2.09,17.76,41,41,0,0,0-1.4,11.81c.09,27.71-3.2,27.56,24.59,27.1,4-.07,8,.05,11.07,3.32-10.64.11-21.3.59-31.92.21-7.63-.28-11.43-3.78-11.5-11.06-.14-13.9-2.08-27.91,1.68-41.69a30.07,30.07,0,0,0,1.42-9.8c-1.5-20.08,3.68-39.6,4.62-59.47.43-9.24,2.65-18.42,4.46-27.41,10.25-50.84,23.3-101,47.86-147.13,12.77-24,27.4-46.77,45-67.94,12.5-15.06,27.51-26.66,41.73-39.47C1888.85,2555.54,1889.74,2562.35,1879.86,2567.24Z" transform="translate(-1378.64 -1587.86)"/><path class="cls-40" d="M2387.66,3124.58c-19.28-.71-37.65-6.83-56.58-9.74-28-4.31-55.82-10-83.71-15.12-19.46-3.58-38.84-7.59-58.38-10.67-18.18-2.87-36.66-5.37-54.79-.52-13.48,3.61-26.13,9.66-36.32,19.67-8,7.82-15.66,15.89-23.48,23.85,15.6-42.36,56.83-66.54,101.55-59.17q118.2,19.5,236.35,39.34c1.74.29,3.84.06,4.45,2.46-.69,1.05-1.18,2.77-2.11,3.05C2405.75,3120.38,2397.09,3124,2387.66,3124.58Z" transform="translate(-1378.64 -1587.86)"/><path class="cls-39" d="M1599.65,2499.69c-7.51,6.69-8.63,16.41-11,25.17-9,32.8-12.82,66.15-13.21,100.36-.64,56.59,10.49,110.8,27.18,164.31,11.71,37.56,27,73.67,44.79,108.71,6.63,13,14,25.71,21.13,38.48,4.15,7.4,9.48,13,19.13,11a6.35,6.35,0,0,1-6.06,4.23c-4.17.27-8.15-.52-11-3.57a68.77,68.77,0,0,1-7.2-9.48c-22.37-34.07-40.14-70.46-55.28-108.25a676.62,676.62,0,0,1-29.72-90.92,535.9,535.9,0,0,1-11-60.58c-2.58-20.6-3.29-41-3.29-61.63,0-45,9.52-88.26,25.11-130.29.4-1.1,1.82-1.82,2.76-2.72C1594.18,2489.74,1602.69,2491.76,1599.65,2499.69Z" transform="translate(-1378.64 -1587.86)"/><path class="cls-41" d="M1859.61,3020.2c1.68,28.19,3.05,24.36-23,24.47-44.91.2-89.82.1-134.73,0-7.24,0-14.48-.62-21.71-1-8.49-20.58-5.73-25.54,15-25.61q75.52-.22,151,0C1850.72,3018.11,1855.53,3017,1859.61,3020.2Z" transform="translate(-1378.64 -1587.86)"/><path class="cls-42" d="M2096.32,2799.55c5.25,17.23,5,35.25,7.39,52.89,4,30.15,7.22,60.41,10.75,90.63,1.69,14.45,3.47,28.9,4.93,43.37.3,2.94,1.93,6.94-2.27,8.6-3.61,1.43-6.15-1.22-8.64-3.36-7.06-9-15.58-16.87-20.65-27.39-22.48-52-14.68-104.18-.93-156.34C2088.05,2803.58,2090.17,2799,2096.32,2799.55Z" transform="translate(-1378.64 -1587.86)"/><path class="cls-43" d="M1672.15,2972.32c5.27-.36,10.53-1,15.79-1q85.35-.12,170.69,0a108,108,0,0,1,15.79.9c3.36.5,5.73,3.08,6.66,6.58.87,3.3-1.44,4.62-3.67,6.12-3.29,2.22-6.45,4.63-9.66,7-17,4.37-34.27,1.79-51.4,2-42.56.42-85.12.32-127.68,0C1671,2993.73,1668.64,2990.17,1672.15,2972.32Z" transform="translate(-1378.64 -1587.86)"/><path class="cls-44" d="M2355.44,2531.82a396.4,396.4,0,0,0-87.37,32.1c-26.79,13.65-50.32,31.79-72.43,51.86-4.81,4.37-8.13,10.39-12.14,15.65l-19.13.93c-1.85-4-.36-6.06,1.34-8.12,41.47-50.46,93.11-84.65,157.56-98.15A184.7,184.7,0,0,1,2347,2523C2352.77,2522.58,2355.06,2526.51,2355.44,2531.82Z" transform="translate(-1378.64 -1587.86)"/><path class="cls-45" d="M2447.93,2536.44c7.26,0,14.51-.09,21.76,0,29.84.49,59.45-1.44,88.62-8.19a93.79,93.79,0,0,1,9.76-1.49c.56-.07,1.19.51,2.84,1.26a68.35,68.35,0,0,1-21.57,27.16c-25.3,19.17-53.46,28.46-85.4,24.54C2463.75,2563.41,2461.07,2548,2447.93,2536.44Z" transform="translate(-1378.64 -1587.86)"/><path class="cls-46" d="M2959.8,3204c-11.61-17-27.1-28.54-47.12-33.87-1.86-.5-3.52-1.79-5.27-2.71,27.86-8.41,54-3.15,77.58,12.39,18.32,12.05,23.82,31.1,21.94,52.31-.47,5.24-2.24,10.36-3.41,15.53-4.9,10.23-14.25,8.18-22.82,8.27-9.22-11.79-8.92-26.86-13.85-40.13C2965.8,3211.07,2962.72,3207.58,2959.8,3204Z" transform="translate(-1378.64 -1587.86)"/><path class="cls-47" d="M2168.39,3256.41c-7.95-1.74-16.7.57-23.94-4.75,2-6.23,6.14-10.26,12.55-11.24,10.38-1.58,20.83-2.69,31.25-4,21.27,5.46,42.31,2.5,62.82-3.22,14.91-4.15,22.9-15.22,23.47-31.11.22-5.91-1.62-12,1.35-17.69,4.05-1,7.85.08,11.67,1.37,5.65,1.9,8.63,5.37,8.51,11.71-.35,19.25-.4,38.51-.57,57.77-3.27,4-7.85,4.9-12.53,4.55C2244.82,3257,2206.52,3259.51,2168.39,3256.41Z" transform="translate(-1378.64 -1587.86)"/><path class="cls-48" d="M1879.86,2567.24c5-5.76,3.79-12.64,3.46-19.35a7.28,7.28,0,0,1,7.26,5.69c2.44,9,4.51,18,6.58,27.08,7.47,32.54,11.21,65.65,10,98.88-2.53,67.46-14.18,133.31-39.51,196.3-3.52,1-5-1.18-6.19-3.94-1.36-11.29,5.28-20.92,6.54-31.66a40.69,40.69,0,0,1,1.46-4.95,76.47,76.47,0,0,0,3.12-12,31.86,31.86,0,0,1,1.43-4.7c1.47-3.81,2.5-7.77,3.69-11.67,2-5.65,1.94-11.66,3-17.5a47,47,0,0,1,1.25-5.4c1.57-6.86.71-13.78.71-20.7,11.55-65.11,9-130.07-1.79-194.95Z" transform="translate(-1378.64 -1587.86)"/><path class="cls-49" d="M1999.66,3252.85c-6.75,2.67-13.77,3.3-21,3.2-16.87-.24-33.74-.22-50.61-.31a32.27,32.27,0,0,0-.77-3.23c29-2.05,54.14-14.51,74.54-33.69a130.79,130.79,0,0,0,34.28-52.86c2.09-6.14,2.44-13.13,7.62-18,.22,13.89.3,27.77.67,41.66.77,29.29-14.27,48.45-39.09,61.39A34.64,34.64,0,0,1,1999.66,3252.85Z" transform="translate(-1378.64 -1587.86)"/><path class="cls-36" d="M1647.56,2639.76c-4-2.89-5.57-7.37-7-11.69q-20.08-60-39.89-120.08a18,18,0,0,1-.44-3.92c4.9-2.41,9.42-.62,13,2.35a273.67,273.67,0,0,1,41.67,42.77c2.52,3.26,4.16,6.87,1.63,11Z" transform="translate(-1378.64 -1587.86)"/><path class="cls-50" d="M2447.93,2536.44c1.05.78,2,1.88,3.17,2.29,14.92,5.21,16.69,7.52,17.11,22,.2,6.73-.32,13.24-4.27,19-23.5-.42-43.94-9.16-62.29-23.26-13.63-10.47-17.09-15.33-20.84-28.08Z" transform="translate(-1378.64 -1587.86)"/><path class="cls-51" d="M2275.89,3184.4c10.68,27.17-1.49,50.06-29.06,55.72a184.48,184.48,0,0,1-45.55,3.62c-5.66-.25-10.54-1.57-13-7.32,20.48-6.41,37.65-18.18,53.12-32.74,4.78-4.49,9.62-8.93,14.62-13.17C2261.69,3185.67,2268.1,3182.68,2275.89,3184.4Z" transform="translate(-1378.64 -1587.86)"/><path class="cls-52" d="M3184.61,3023.42c-2.43-1-5.06-1.66-7.27-3-5-3-5.54-5.87-1.65-9.24q27.76-24.09,55.85-47.81c2.34-2,5-.82,6.37,2.08a9.48,9.48,0,0,1,1.15,3.76c.07,27.75.05,55.5.05,84.26-10.27-1.35-16.65-7.92-23.2-14.18-8.85-9-1.25-21.74-7.09-31.85C3198.75,3010.17,3194.84,3021.69,3184.61,3023.42Z" transform="translate(-1378.64 -1587.86)"/><path class="cls-53" d="M2068.54,3172c5.59,9.41,14.53,15.06,23.74,20,18.75,10.07,38.73,16.14,60.26,16.1L2196,3208c-6.94,5.64-15.27,7.25-23.83,8.15a53.5,53.5,0,0,1-5.93.28c-17.84-.14-31.8,6.69-41.58,22.06-4.14,6.51-6.75,6.77-12.83,2.84C2086.55,3225,2071.53,3202.22,2068.54,3172Z" transform="translate(-1378.64 -1587.86)"/><path class="cls-54" d="M1900.07,3008.07c-7.84,6.15-7.63,14.84-7.62,23.58q.09,67.77,0,135.54c0,19.26-.43,38.52-.65,57.78-9.15-10-11.35-22.47-11.42-35.14-.3-57.24-.15-114.48-.15-171.72,0-6.18.41-12.16,7.63-14.56C1892.72,3002.92,1899.13,2998.1,1900.07,3008.07Z" transform="translate(-1378.64 -1587.86)"/><path class="cls-45" d="M2800.14,2200c4.65,3.18,5.63,8.74,8.48,13.09,9.42,14.36,21.66,17.81,37.25,10.07,6.44-3.2,12.5-7.16,18.74-10.78-6.91,19-18.59,35-32.74,49.08-4.63,4.62-10.31,8.32-15.89,11.83-5,3.16-11.38,6.86-16.61,4.27-6.3-3.13-3.55-10.9-2.48-16.14C2801.05,2241,2797.68,2220.34,2800.14,2200Z" transform="translate(-1378.64 -1587.86)"/><path class="cls-55" d="M2992.13,3032.49c-.41.52-.71,1.23-1.24,1.54-24.42,13.8-22.9,11.44-22.71-12.44.11-14.53.15-29.07.36-43.61a67.34,67.34,0,0,1,1-11.78c.47-2.5,2-4.8,3-7,6-1,8.64,3.56,12,6.37q24.16,20.45,47.92,41.33c4,3.51,3.14,6.87-1.73,8.84-3.65,1.48-7.47,2.56-11.21,3.81-11.37-3.49-17.25-13.66-26.25-21.66C2992.08,3009.81,2993.82,3021.25,2992.13,3032.49Z" transform="translate(-1378.64 -1587.86)"/><path class="cls-56" d="M2191.89,2308c9,34.33,22.12,66.83,43.83,95.27,10.05,13.16,19.68,26.7,31.77,38.18,2,1.87,3.73,4,1,6.67-35.09-27.88-59.33-63.78-76-104.88a282.55,282.55,0,0,1-20.31-122.53c11.76,6.21,16.5,17.37,16.3,37.84C2189.4,2275,2190.57,2291.51,2191.89,2308Z" transform="translate(-1378.64 -1587.86)"/><path class="cls-57" d="M1859.61,3020.2q-82.21-.15-164.43-.28a64.8,64.8,0,0,0-9.85.69,5.63,5.63,0,0,0-5,5.32c-.34,5.92-.18,11.86-.23,17.79-17.3.23-34.6.54-51.9.63-4.55,0-7.52-2.49-8-7.19-1.84-20-2.63-20.65,17.58-20.68,67.31-.08,134.61-.42,201.91-.62,5.32,0,10.64.27,16,.49C1858.1,3016.45,1858.82,3018.4,1859.61,3020.2Z" transform="translate(-1378.64 -1587.86)"/><path class="cls-58" d="M2160.39,1843.85c-10.58,24.23-20.37,48.76-25.72,74.75a377.55,377.55,0,0,0-7.1,48.79c-1.75,23.65-4.06,47.1.13,70.73,1,5.78.21,11.89.24,17.85-6.31-8.38-6.09-18.89-7.33-28.27-3.47-26.26-6.55-52.75-4.57-79.37,2.8-37.6,10.78-73.45,36.32-103.11,2.58-3,4.39-6.64,6.91-9.69,1.48-1.78,3.5-1.28,5.05.45-.18,1.37-.35,2.75-.53,4.13A50.07,50.07,0,0,0,2160.39,1843.85Z" transform="translate(-1378.64 -1587.86)"/><path class="cls-59" d="M3288.33,3255.34c-1.24-6.26,1.53-11.81,3.78-17.17,9.38-22.35,1.67-52.91-21.46-68.35-7.14-4.76-11.38-10.65-14.71-17.91.16-.89.33-1.78.47-2.68a23.85,23.85,0,0,1,2.71-4.73c5-3.89,6.82-14.45,16.75-8,3.13,10.12,6.85,19.28,15.94,26.44,25.08,19.75,33.28,58.69,7.72,88.06-1.3,1.49-2.54,3-3.81,4.55C3293.18,3258.62,3290.72,3258.39,3288.33,3255.34Z" transform="translate(-1378.64 -1587.86)"/><path class="cls-60" d="M3344.16,3196.41c11.34-1.92,22.31.11,32.6,4.52,17.2,7.36,29.22,19.38,31.39,39.06-30,19.56-66.63,6-69.67-25.55C3337.79,3207.33,3339.14,3201.44,3344.16,3196.41Z" transform="translate(-1378.64 -1587.86)"/><path class="cls-61" d="M2096.32,2799.55c-5.63,8.43-6.34,18.4-8.92,27.81-8.14,29.64-8.91,59.89-7,90.2.67,10.35,4.34,20.53,6.88,30.73,1.59,6.37,3.62,12.64,5.45,18.95.79,4.19-1,5.81-5.09,5-14.77-17.77-17.94-39.38-19.51-61.24-2.15-30,2.45-59.49,8.87-88.67,3.12-14.2,7.46-28.13,11.24-42.19,2.43-2.48,4.81-2.51,7.14.13Z" transform="translate(-1378.64 -1587.86)"/><path class="cls-62" d="M1672.15,2972.32c.11,2-.13,4.07.36,6,3.31,12.62,4.52,13.8,17.67,13.8q88.78,0,177.57-.24c-1.45,1.23-2.77,3.3-4.36,3.54a95.25,95.25,0,0,1-13.83.76q-108.39-.29-216.78-.67c-2,0-4,0-6,0-8.79-.38-11.28-2.07-11.41-7.7-.22-9.55,3.49-15.71,11.09-15.88C1641.71,2971.51,1656.94,2972.11,1672.15,2972.32Z" transform="translate(-1378.64 -1587.86)"/><path class="cls-63" d="M3252.48,3139q-23.54-62.14-83.57-90.64c-3-1.42-5.9-3-8.85-4.43-.37-7.79,4.07-5.92,8.43-4.2,33.81,11.46,60.78,32.44,83.05,59.87,5.44,6.7,10.43,13.75,15.63,20.64,5.75,6.74,2.19,12-2.66,17.11a17.22,17.22,0,0,1-7.42,3.85A4.6,4.6,0,0,1,3252.48,3139Z" transform="translate(-1378.64 -1587.86)"/><path class="cls-64" d="M3344.16,3196.41c-4.78,10.35-2.9,20.39,1.26,30.4,2.74,6.59,7.57,11,14.3,12.53,13.38,2.95,26.78,7.52,40.61,1.51,2.3-1,5.2-.61,7.82-.86,3.08,3.1,3.55,7,3.12,11.05-.19,1.83-.73,4-3.27,4.27a45.34,45.34,0,0,1-5.89.65q-38.73-.23-77.47-.56c-1.26-.54-1.78-1.23-1.57-2.07s.52-1.36.87-1.36a93.5,93.5,0,0,0,11.3-48.69C3335,3197.31,3338.67,3195.44,3344.16,3196.41Z" transform="translate(-1378.64 -1587.86)"/><path class="cls-65" d="M1748.56,2436.19c3.38-6.7-1.88-13.13-.61-19.76,4.22,1.25,6,4.9,8.16,8.23,25.46,39.68,40.47,83.25,48.2,129.52,1.74,10.43,4.63,20.72,4.26,31.46-.13,4,0,8-3.84,10.64-7.18-5.4-3.87-13.28-4.77-20.17-4.67-24.54-7.51-49.51-17.14-72.88-1.59-3.59.85-8.47-3.54-11.18-6.74-14.05-13.37-28.15-20.28-42.12C1756.43,2444.74,1754.37,2439,1748.56,2436.19Z" transform="translate(-1378.64 -1587.86)"/><path class="cls-66" d="M2119.45,2112.22c-6.77,3.83-14.7,5-20.93,10.26-14.15,12-19.75,27-16.53,45,1.27,7.09,4,13.89-1.12,20.48-5.86-15-9.71-30.35-9.24-46.56.69-24.09,15.51-38.26,39.37-37.76C2116.61,2103.8,2119.67,2106.37,2119.45,2112.22Z" transform="translate(-1378.64 -1587.86)"/><path class="cls-67" d="M1900.07,3008.07c-2.8-5-7.86-3.78-12.21-4.51,3.79-3.63,8.58-2.78,13.1-2.79q61.23-.08,122.46,0c5.89,0,12-.63,16.73,4.09-5.7,4.94-12.61,3-19,3.08C1980.77,3008.1,1940.42,3008.05,1900.07,3008.07Z" transform="translate(-1378.64 -1587.86)"/><path class="cls-68" d="M2739.94,2180.07c3.86-2.47,4.23-6.38,4.22-10.4,0-9.88-.12-19.76-.18-29.63,7.73,13.7,15.48,27.39,25.56,39.57,3.49,4.22,3.39,8.43-.09,12.45-5.08,5.88-7.95,13.69-16.06,18.65Z" transform="translate(-1378.64 -1587.86)"/><path class="cls-69" d="M2092.68,3252.59c-1.61,1-3.21,2.81-4.83,2.83q-22.26.28-44.55-.1c-1.6,0-3.16-1.93-4.75-3,10-8.69,16-20.3,22.63-33C2071.74,3231.83,2080.15,3244.25,2092.68,3252.59Z" transform="translate(-1378.64 -1587.86)"/><path class="cls-70" d="M2191.89,2308c-6.71-5.4-2.39-14-5.95-20.41s-1-12.82,1.23-19.19c1.06-3.07.93-6.55,1.34-9.85.95,2.44,2.32,4.8,2.77,7.33,6.17,34.5,24.45,61.07,52.76,81.15,2.7,1.92,5.35,3.91,8,5.87-2,2.2-4.56,3-7.12,1.6-14.7-8-28.73-16.75-37.58-31.7-3.72-6.28-7.67-12.43-11.54-18.62-.8-1.28-2.1-1.41-3,0C2192.18,2305.2,2192.18,2306.68,2191.89,2308Z" transform="translate(-1378.64 -1587.86)"/><path class="cls-71" d="M3004,2947.92a245.31,245.31,0,0,1,62.27,48.25,28,28,0,0,1,4.49,6.4c.41.79-.26,2.61-1,3.41a5.32,5.32,0,0,1-3.49,1.42c-5.18,0-8.1-3.9-11.51-6.92q-27.37-24.24-54.73-48.52C2999.09,2948.35,2999.84,2946.43,3004,2947.92Z" transform="translate(-1378.64 -1587.86)"/><path class="cls-72" d="M2948.19,2944.15c-10-4.38-19.1-10.58-30.32-12.67-12.34-2.3-12.84-4.07-13.71-19.06,17.79,1,34.09,7.36,51,13.62A30.82,30.82,0,0,1,2948.19,2944.15Z" transform="translate(-1378.64 -1587.86)"/><path class="cls-73" d="M1656.5,2560.18a21.67,21.67,0,0,0-6.12-12.09c-11.79-11.49-23.23-23.35-35.29-34.55-4.24-3.93-9.88-6.36-14.88-9.47-.18-1.46-.37-2.91-.56-4.37-2.11-5.31-8.24-8.55-7.76-15.17,3.49,1.68,7.45,2.78,10.4,5.14a316.17,316.17,0,0,1,50.31,49.5,45.07,45.07,0,0,1,6,10.12A9.62,9.62,0,0,1,1656.5,2560.18Z" transform="translate(-1378.64 -1587.86)"/><path class="cls-74" d="M3184.61,3023.42c1.84-5.27,6.12-8.55,10.15-11.86,6-4.91,10.14-12.17,18.38-14.12,6.51,7.27,2.43,16,3.18,24.07.54,5.86-.22,11.84-.41,17.77a8.69,8.69,0,0,1-3.16-.34,9.08,9.08,0,0,1-4.6-2.81Z" transform="translate(-1378.64 -1587.86)"/><path class="cls-75" d="M2992.13,3032.49a7.87,7.87,0,0,1-3.83-6.57c-.08-11.25,0-22.51,0-34.84,8.11,1.06,11.87,7.74,16.82,12.29,5.3,4.87,11.69,9,14.38,16.2Z" transform="translate(-1378.64 -1587.86)"/><path class="cls-76" d="M2168.39,3256.41q51.65-.37,103.28-.76c7.95-.06,15.89-.26,23.83-.4,1.64,3.64,4.75,4.7,8.41,4.79.06,1.24.13,2.48.23,3.72-18.48-.05-36.84.86-55.33-2.91-12.12-2.48-25.1-.74-37.69-.84-10.61-.09-21.21-.12-31.82-.17C2175.31,3259.82,2171.29,3259.9,2168.39,3256.41Z" transform="translate(-1378.64 -1587.86)"/><path class="cls-77" d="M1855.78,3255.94c-3.76,5.29-9.41,4-14.55,4q-60.68.08-121.33,0c0-1.17,0-2.34-.1-3.51,16.45-.25,32.9-.6,49.36-.71,18.37-.13,36.83,1.32,54.86-3.68,2,2.93,5,3.88,8.41,3.89C1840.21,3256,1848,3255.94,1855.78,3255.94Z" transform="translate(-1378.64 -1587.86)"/><path class="cls-78" d="M3260,3136.41c7.06-3.32,9.88-8.52,7.2-16.17,6.68,3.38,5.35,11.06,8.7,16.22-3.48-.34-5.81,1.16-8,3.94-2.28,2.95-5.29,5.34-8,8a47.11,47.11,0,0,0-4,3.59l0-.05c-12.74,1.6-23.48-2.19-32-11.87-1.35-4.12.51-5.16,4.23-4.38,7.62,4.77,15.82,5.24,24.35,3.34a6.07,6.07,0,0,0,3.27-.23A9.46,9.46,0,0,0,3260,3136.41Z" transform="translate(-1378.64 -1587.86)"/><path class="cls-79" d="M2232,1659.68c-10.32,6-13.57,11-10.63,21.46,2.17,7.65,2.54,15.23,3.08,22.93-10.81-12.11-12.35-26.93-12-42.18.09-4.21,2.82-7.27,6.55-9.22,2.87-1.5,5.78-3.46,9.17-1.54S2231.78,1656.32,2232,1659.68Z" transform="translate(-1378.64 -1587.86)"/><path class="cls-80" d="M1823.77,2951.31c.08-1.07.13-2.14.15-3.22,5.81-22,13-43.33,27.83-61.23a5.6,5.6,0,0,1,5.47,1.73c1.38,15.09-9.91,26-13,39.68l.13-.15c-2.7,2.14-2.79,4.73-1.3,7.59-.63,1.77-1.31,3.52-1.9,5.31Q1837,2953.82,1823.77,2951.31Z" transform="translate(-1378.64 -1587.86)"/><path class="cls-81" d="M3168.49,3039.73c-3.27.46-6.61.8-8.43,4.2-7.46-.24-13.11-5.92-20.09-7-9.5-1.49-18.14-6.47-28.76-4.93,2.61-5.18,6.56-3.36,9.29-4.7C3137.38,3028.05,3153.57,3031.44,3168.49,3039.73Z" transform="translate(-1378.64 -1587.86)"/><path class="cls-82" d="M3288.33,3255.34l7.39.18.27,4.49c-25.78,0-51.55,0-77.32-.14-5.16,0-10.73,1.08-14.66-3.83Z" transform="translate(-1378.64 -1587.86)"/><path class="cls-83" d="M1844.25,2928.27a26,26,0,0,1,3-14.85A97.05,97.05,0,0,0,1856,2888c-2.92-4.29-.74-8.39.43-12.55a13.44,13.44,0,0,1,2.95-4.32,3.73,3.73,0,0,1,4.62.78l3.63,3.9C1862,2894.27,1856.09,2912.6,1844.25,2928.27Z" transform="translate(-1378.64 -1587.86)"/><path class="cls-84" d="M2124,1704.1c-13.76,18-13.76,18-7.74,40-5.46-2.06-7.73-6.81-10-11.66-2.91-6.32-3.65-12.88-.44-19.05C2109.5,1706.26,2115.92,1703.3,2124,1704.1Z" transform="translate(-1378.64 -1587.86)"/><path class="cls-85" d="M1888.09,3255.85c-6.9.11-13.81.28-20.71.33-3.24,0-6.18-.87-8.29-3.58l14.13-15.11C1879.14,3243.52,1884.67,3248.75,1888.09,3255.85Z" transform="translate(-1378.64 -1587.86)"/><path class="cls-86" d="M2384.59,2171.59l-5.25,5.41c-12-3.26-22.37-8.69-28.3-20.34L2356,2152C2368,2155,2377.12,2162.05,2384.59,2171.59Z" transform="translate(-1378.64 -1587.86)"/><path class="cls-87" d="M2188.11,2156.42c1.49,11.55-3.94,22.12-4.73,33.35-2-2.46-4.13-4.79-5.87-7.4-2.72-4.09-2.94-8.36.17-12.43C2181.13,2165.41,2184.63,2160.92,2188.11,2156.42Z" transform="translate(-1378.64 -1587.86)"/><path class="cls-88" d="M2087.68,2972.25l5.08-5a68.4,68.4,0,0,1,15.71,24.44C2099,2987.92,2092.28,2981.23,2087.68,2972.25Z" transform="translate(-1378.64 -1587.86)"/><path class="cls-89" d="M2699.81,1656.25l4-4c6.08,3,13.22,4.56,16.27,11.76C2712.87,1662.53,2705.67,1661.14,2699.81,1656.25Z" transform="translate(-1378.64 -1587.86)"/><path class="cls-90" d="M3004,2947.92q-2,2-4,4c-2.55-1.85-5.23-3.57-7.61-5.62-1.29-1.12-2.75-2.86-1.09-4.61.59-.62,2.48-.65,3.41-.2C2998.16,2943.18,3002,2944.31,3004,2947.92Z" transform="translate(-1378.64 -1587.86)"/><path class="cls-91" d="M2095.42,2780.28l-7.14-.13c.39-2.39.33-5,1.31-7.08.63-1.36,2.78-2,4.25-3,.71,1.56,1.8,3.07,2,4.7S2095.6,2778.45,2095.42,2780.28Z" transform="translate(-1378.64 -1587.86)"/><path class="cls-53" d="M2071.63,3139.92c.34,5.64,1.84,11.51-3.16,16.09C2067.74,3150.3,2067,3144.59,2071.63,3139.92Z" transform="translate(-1378.64 -1587.86)"/><path class="cls-92" d="M2636.48,2501l-.15,6.37c-2.38.38-5.48,1.13-5.37-2.44C2631,2502.28,2633.59,2500.83,2636.48,2501Z" transform="translate(-1378.64 -1587.86)"/><path class="cls-66" d="M2082.6,2192.11c4.53,1.36,5.85,3.78,2.58,7.74Z" transform="translate(-1378.64 -1587.86)"/><path class="cls-93" d="M2856.07,2764c-1.33,0-2.65,0-4,.08.39-1.72.67-4.89,1.18-4.92C2856.94,2758.84,2855.72,2761.94,2856.07,2764Z" transform="translate(-1378.64 -1587.86)"/><path class="cls-83" d="M1843.08,2935.71c-3.53-3.21-2.8-5.68,1.3-7.58Q1843.74,2931.91,1843.08,2935.71Z" transform="translate(-1378.64 -1587.86)"/><path class="cls-65" d="M1800.48,2604l2.66-4C1803.37,2602.12,1802.33,2603.35,1800.48,2604Z" transform="translate(-1378.64 -1587.86)"/><path class="cls-17" d="M2807.07,3087.57a2.22,2.22,0,0,1-2-1.52s1.41.17,1.41.17Z" transform="translate(-1378.64 -1587.86)"/><path class="cls-89" d="M2700.07,1651.94l-4.15-3.71Z" transform="translate(-1378.64 -1587.86)"/><path class="cls-52" d="M3208.15,3036.13a4,4,0,0,1,4.61,2.81C3210.38,3039.38,3209.05,3038.11,3208.15,3036.13Z" transform="translate(-1378.64 -1587.86)"/><path class="cls-13" d="M2324,1976l3.94,3.88Z" transform="translate(-1378.64 -1587.86)"/><path class="cls-28" d="M3323.94,3252a7.79,7.79,0,0,1,.7,3.43C3321,3255,3321.17,3253.72,3323.94,3252Z" transform="translate(-1378.64 -1587.86)"/><path class="cls-94" d="M3040.13,2045a6.21,6.21,0,0,1-6.26,6.14c-3.45,0-6.42-2.93-6.16-6.22.42-5.29,1-10.69,5.51-14.25C3035.7,2028.72,3039.73,2036.85,3040.13,2045Z" transform="translate(-1378.64 -1587.86)"/><path class="cls-95" d="M3033.24,2632.73a21,21,0,0,1,6,15.87c-.09,3.25-3,3.9-5.53,3.86s-5.11-.78-5.35-4.13C3028,2642.94,3030.33,2638.48,3033.24,2632.73Z" transform="translate(-1378.64 -1587.86)"/><path class="cls-96" d="M3033.67,2497.16c-5.91-.07-8.59-2.32-8.85-6.74-.32-5.46,2.8-9.19,8-9a20.56,20.56,0,0,1,7.6,1.78c3.39,1.54,4.53,4.67,3.75,8.25a6.35,6.35,0,0,1-5.49,5C3036.78,2496.81,3034.8,2497,3033.67,2497.16Z" transform="translate(-1378.64 -1587.86)"/><path class="cls-97" d="M2998,2873.87a17.9,17.9,0,0,1-1.21-3c-.07-.31.77-.84,1.19-1.26a18,18,0,0,1,1.24,3.08C2999.25,2873,2998.38,2873.47,2998,2873.87Z" transform="translate(-1378.64 -1587.86)"/><path class="cls-98" d="M2477.37,2915.89a18,18,0,0,0-2.9,0c-9.84,2.17-18.28,1.05-24.32-8.45-7-11-12.27-22.37-8.86-35.6,2.55-9.89,12.05-18.87,24.27-14.83a29.16,29.16,0,0,0,21.13-.45c4.32-1.69,9.11-.94,13.6.94,5.91,2.47,8,6.8,4.24,12.09-6.6,9.35-7.56,18.15.23,27.14,2.08,2.39,1.59,5.05.17,7.36-5.14,8.33-11.28,15-22.53,12.27A30.2,30.2,0,0,0,2477.37,2915.89Z" transform="translate(-1378.64 -1587.86)"/><path class="cls-99" d="M2478.42,2853.73a4.32,4.32,0,0,1-2.86-4.43c.58-9.17,6.72-16.53,14.8-17.65a3.47,3.47,0,0,1,4,3.24c0,8.46-5.94,16.25-14.07,18.82A6.23,6.23,0,0,1,2478.42,2853.73Z" transform="translate(-1378.64 -1587.86)"/><path class="cls-32" d="M2654.68,1863.76c13.67.32,30.34-.88,46.58,4.26,6.44,2,12.57,4.21,17.65,8.81s5.13,10.1-.25,13.29c-5.7,3.39-11.58,7-17.87,8.75-10.82,3-21.75,5.88-33.3,5.47-14.65-.51-29.32-.25-44-.27-15.19,0-28.51-5.89-41.32-13.24a13.18,13.18,0,0,1-4.19-4.15c-2-3.07-2.19-6.57.73-9,5.66-4.79,12.49-7.32,19.54-9.56,14.24-4.53,28.86-4.27,43.49-4.32C2645.1,1863.75,2648.43,1863.76,2654.68,1863.76Z" transform="translate(-1378.64 -1587.86)"/><path class="cls-89" d="M2683.9,1652.09c3.28-.1,6.24.54,8.13,3.59C2688.68,1655.93,2685.79,1655.14,2683.9,1652.09Z" transform="translate(-1378.64 -1587.86)"/><path class="cls-1" d="M2160.39,1843.85l3.4-3.74Z" transform="translate(-1378.64 -1587.86)"/><path class="cls-100" d="M2392.88,2379.18c2.9,1.58,5.84,3.1,8.69,4.77,31.47,18.5,64.81,21.61,99.68,12.1,3.18-.87,6.32-1.94,9.5-2.82a6.82,6.82,0,0,1,2.27.29c2,3.58-1.1,5.8-3,7.65a67.34,67.34,0,0,1-12.3,10c-36.54,21.66-87.18,9.42-110.37-26.46C2386.31,2379.93,2388.58,2378.54,2392.88,2379.18Z" transform="translate(-1378.64 -1587.86)"/><path class="cls-101" d="M2392.88,2379.18l-5.52,5.49c-.52-.37-1.19-.63-1.51-1.13-2-3-5.81-7.42-2.95-9.61C2387.56,2370.36,2390.18,2376,2392.88,2379.18Z" transform="translate(-1378.64 -1587.86)"/><path class="cls-102" d="M3197.72,3214.27c-1.29-3.62-2.31-6.68-3.46-9.68-1.76-4.59-4.6-7.9-9.91-8.4-6.31-.59-11.15-3.83-14.69-8.93-4.27-6.14-1.64-13.42,5.58-15.31,12.83-3.37,25.7-5.94,38.63-.15,5.21,2.33,7.59,7.92,5,12.85-.9,1.72-1.88,3.92-3.42,4.7-8.53,4.33-11.46,11.93-13.23,20.56C3201.89,3211.41,3199.61,3212.5,3197.72,3214.27Z" transform="translate(-1378.64 -1587.86)"/><path class="cls-103" d="M3139.69,3135.69c-5,9.38-10.94,16.54-22.26,16.18-10.52-.33-18.89-4.93-24-14.41-.4-.73.48-2.29,1-3.34.21-.43,1-.68,1.61-.75a3.07,3.07,0,0,1,1.92.31c12.1,9,24.47,7.52,37.08,1.21C3135.82,3134.46,3137.26,3135.23,3139.69,3135.69Z" transform="translate(-1378.64 -1587.86)"/><path class="cls-104" d="M3228.13,3135.66l-4.23,4.38a52.81,52.81,0,0,1-4.62-5.79c-.9-1.5-2-3.68.4-4.88a3.92,3.92,0,0,1,3.46.7A59.2,59.2,0,0,1,3228.13,3135.66Z" transform="translate(-1378.64 -1587.86)"/><path class="cls-105" d="M1944.1,3130.89c-2.49,9.52-3.84,19.29-5.08,29.11-.54,4.27-3.68,8.36-6.16,12.2-2.28,3.52-7.5,3.13-10.16-.35-3.26-4.27-5.93-9-6.29-14.33a138.74,138.74,0,0,0-3.64-23.43,23.38,23.38,0,0,1,.66-11.72c1.75-5.8,2.11-11.65,2.73-17.57a44.7,44.7,0,0,1,3.19-11.32c1.7-4.38,4-8.63,9.52-8.89,6.39-.31,7,5.06,8.24,9.34A197.89,197.89,0,0,1,1944.1,3130.89Z" transform="translate(-1378.64 -1587.86)"/><path class="cls-106" d="M2303.43,2244c-11-7.5-11.9-20-15.06-31.21-1.11-3.95,1-7.69,3.8-10.8,11.92-13.26,25.57-22.92,44.51-22,2.63.13,5.28-.22,7.93-.35,13.15-6.79,23.49-3.41,31.42,8.69a55.52,55.52,0,0,0,6,4.74c9.26,5.42,11.72,14.09,9.58,23.51-2.09,9.16-3.93,19.25-14.59,23.4-6.21-.38-8.58-5.7-12.21-9.43-17.7-18.18-34.12-17.24-50.14,3C2311.48,2237.65,2309.54,2243.06,2303.43,2244Z" transform="translate(-1378.64 -1587.86)"/><path class="cls-107" d="M2303.43,2244c2.51-4.6,4.75-9.39,7.58-13.79,15.07-23.42,42-24.3,58.79-1.93,2.75,3.65,4.86,7.79,7.27,11.7q1.14,6.06,2.3,12.13c-4.45,7.27-8.68,14.61-15.25,20.39-16.49,14.51-30.88,16.24-47.22,1.64-8.44-7.54-9.72-.44-13.77,2.72-4.49-7.44-2.92-15.34-1.66-23.18C2302,2250.45,2302.77,2247.25,2303.43,2244Z" transform="translate(-1378.64 -1587.86)"/><path class="cls-108" d="M2303.13,2276.88c.58-5.83,1.15-11.66,1.72-17.39,5.39-1,7.25,3,9.6,5.9,14.78,18.45,30.24,20,48,2.05,3.67-3.71,6.54-8.2,10.23-11.89,1.69-1.69,4.46-2.31,6.74-3.41,2,12,1.83,23.74-2.43,35.36a55.9,55.9,0,0,1-11.46,18.5c-14.23,15.63-38.26,13.7-50.8-2.06C2308.39,2296,2303.58,2287.35,2303.13,2276.88Z" transform="translate(-1378.64 -1587.86)"/><path class="cls-109" d="M2376,2188.35c-9.75-5.52-20.07-9-31.43-8.69-17.89-6.87-35.29-2-52.63,2.42-5.63,1.44-11,3.77-17.53,6a56.41,56.41,0,0,1,44.78-32.25c10.64-1.32,21.23-.35,31.82.79,10.15,5.78,20.05,11.92,28.3,20.34.44,1.2.84,2.41,1.31,3.59C2383.16,2186.89,2383.17,2186.89,2376,2188.35Z" transform="translate(-1378.64 -1587.86)"/><path class="cls-110" d="M1852.11,2888c-5.78,13.88-11.36,27.85-17.44,41.6-2.88,6.5-4.88,13.65-10.75,18.46-10,0-19.92.12-29.87-.17-8.14-.24-11-3.73-9.35-11.27,2.46-11,4.71-22,8.14-32.69,10.11-31.53,16.71-63.95,25.15-95.9q22.29-84.34,44.26-168.78,9.29-35.47,18.58-70.94c5.46,7.84,6.82,17.06,8.41,26.1,3,16.86,6.71,33.63,6.71,50.89,0,11.94-.12,23.88.1,35.82.45,23.89-3.13,47.34-7.17,70.77-.9,5.18-.64,10.56-.92,15.85-4.84,6,.79,14.2-4.07,20.24l0-.12c-3.84,6.57-.37,15.16-5.86,21.27-.5,3.67.79,7.69-2.21,10.84l.07-.12c-4.39,4.59.41,11.52-4.11,16.08l.05-.09c-3.68,12.09-6.38,24.51-12.11,35.92l0,.07C1857.06,2877.17,1856.38,2883.45,1852.11,2888Z" transform="translate(-1378.64 -1587.86)"/><path class="cls-111" d="M2676.14,2188.41c1.64.86,3.75,2.86,4.85,2.4,8.77-3.6,15.76-.41,20.91,6.17,6,7.59,8.52,16.68,4.31,26-4.6,10.17-9.36,20.26-15.87,29.54a119.26,119.26,0,0,1-13.64,16.79c-5.79,5.7-12.39,9.72-20.62,10.68a11,11,0,0,1-4.43-8.59c.11-32.38-14.49-52.73-47.27-58.43,1.35-14.13,12.32-20,22.64-26.44,4.24-2.67,10.45-1.64,13.15-7.11C2654.71,2172.24,2666.77,2174.92,2676.14,2188.41Z" transform="translate(-1378.64 -1587.86)"/><path class="cls-108" d="M2652.46,2284.37c-1,8.31-5.37,14.9-10.8,20.8-14.53,15.78-36.14,15.59-50.73-.22-7.95-8.62-12.15-19.15-13.68-30.4-2.84-20.83,2.24-39.49,17.94-54.39,2.43-2.3,5.25-4,8.79-4.09,7.8,5.84,8.07,12.87,3.32,20.71-4,6.37-12.14,12.48-5.44,20.61s12.67-2.52,19.3-2.69C2631.86,2264.31,2646.89,2269.36,2652.46,2284.37Z" transform="translate(-1378.64 -1587.86)"/><path class="cls-112" d="M2603.86,2235.51c6.19-6.44.46-13,.12-19.44.12-1,.25-2.08.4-3.11,27.91-7,47.87,14.68,51.36,43.4.94,7.78.27,15.74.34,23.62l-3.62,4.39c-.89-1-1.6-2.39-2.71-2.86-12.7-5.31-21.64-15-29.81-25.53C2614.31,2249.37,2608.92,2242.57,2603.86,2235.51Z" transform="translate(-1378.64 -1587.86)"/><path class="cls-113" d="M2676.14,2188.41c-11.12-6.47-23.2-9.1-36-9-17.94-6.76-35.13-1-52.45,3.09-4.92,1.16-9.11,5.67-16.15,3.05,5.89-11.42,15.31-18.41,26-23.57,18.19-8.79,37.06-9.27,56-2.22,11,4.09,19.1,11.81,24.81,21.93C2679.74,2184.16,2678.78,2186.79,2676.14,2188.41Z" transform="translate(-1378.64 -1587.86)"/><path class="cls-114" d="M2968,3212a89.76,89.76,0,0,1,12.67,43.92l-17.86-.14c3.07-14.55,2.64-29.13.36-43.72C2964.78,3210.39,2966.39,3210.45,2968,3212Z" transform="translate(-1378.64 -1587.86)"/><path class="cls-115" d="M2968,3212l-4.83.06c-3.33-1.76-3.22-5-3.39-8.06C2964.08,3205.06,2966.94,3207.61,2968,3212Z" transform="translate(-1378.64 -1587.86)"/><path class="cls-116" d="M1784,2500c9.44,24.51,15.78,49.66,16,76.11-6.1-4.94-3.52-12.4-5.21-18.59-5.2-19.09-9.75-38.36-14.56-57.57C1781.47,2498.19,1782.74,2498.2,1784,2500Z" transform="translate(-1378.64 -1587.86)"/><path class="cls-117" d="M1784,2500c-1.26,0-2.53,0-3.79,0-.3-2.64-.59-5.28-.9-7.91C1783.2,2493.31,1783.85,2496.5,1784,2500Z" transform="translate(-1378.64 -1587.86)"/><path class="cls-118" d="M1859.77,2871.79c1.6-12.8,5-25,12.11-35.92.23,5.91,0,11.63-2.3,17.34-2.4,6-3.78,12.47-5.6,18.73Z" transform="translate(-1378.64 -1587.86)"/><path class="cls-119" d="M1876.57,2808c1.19-4.48,2.51-8.93,3.5-13.45.59-2.72,1.6-5,3.88-6.67-.76,6.82,2.52,14.42-3.92,20.13C1878.87,2810,1877.72,2809.88,1876.57,2808Z" transform="translate(-1378.64 -1587.86)"/><path class="cls-120" d="M1883.89,2788c.74-6.87-2.11-14.46,4.07-20.24C1887.1,2774.61,1890.62,2782.34,1883.89,2788Z" transform="translate(-1378.64 -1587.86)"/><path class="cls-118" d="M1871.83,2836c.38-5.61-1.48-11.8,4.11-16.08C1875.48,2825.47,1878,2831.82,1871.83,2836Z" transform="translate(-1378.64 -1587.86)"/><path class="cls-118" d="M1876.57,2808H1880c-.19,4.41.73,9.2-4.16,12Q1876.23,2814,1876.57,2808Z" transform="translate(-1378.64 -1587.86)"/><path class="cls-18" d="M3255.92,3152a4.18,4.18,0,0,1,4-3.59Z" transform="translate(-1378.64 -1587.86)"/><path class="cls-18" d="M3260,3136.41c-.86,1.77-2.14,2.79-4.23,2.37Z" transform="translate(-1378.64 -1587.86)"/><path class="cls-118" d="M1852.11,2888c.58-6.33,2.58-12,7.7-16.17,1,5.92-1.11,11.12-3.83,16.17l-1.93,0Z" transform="translate(-1378.64 -1587.86)"/><path class="cls-121" d="M2351.35,2268.06c-7.31.3-12.94-6.28-13.41-14.8-.5-9,5.43-17.32,12.38-17.17a10.78,10.78,0,0,1,5.54,1.61c9.66,6.51,9.79,21.9.25,28.58C2354.59,2267.35,2352.51,2267.64,2351.35,2268.06Z" transform="translate(-1378.64 -1587.86)"/><path class="cls-122" d="M2603.86,2235.51c12.78,1,14.88,10.38,16.08,20.47-2.22,3.18-4,6.84-6.76,9.44-5.16,4.86-13.19,3.16-16.6-3C2591.4,2253.08,2593.48,2245.39,2603.86,2235.51Z" transform="translate(-1378.64 -1587.86)"/></svg>